<?xml version="1.0" encoding="utf-8"?>
<!-- Generator: Adobe Illustrator 24.0.0, SVG Export Plug-In . SVG Version: 6.00 Build 0)  -->
<svg version="1.1" id="Layer_1" xmlns="http://www.w3.org/2000/svg" xmlns:xlink="http://www.w3.org/1999/xlink" x="0px" y="0px"
	 viewBox="0 0 1366 768" style="enable-background:new 0 0 1366 768;" xml:space="preserve">
<style type="text/css">
	.st0{fill:#FFFFFF;}
</style>
<g>
	<path class="st0" d="M426.69,235.53h0.16c0.42,0,0.71,0.53,0.87,1.58c0.16,1.05,0.26,2.24,0.32,3.55c0.05,1.32,0.13,2.5,0.24,3.56
		c0.1,1.05,0.37,1.58,0.79,1.58c0.42,0,0.89,0.03,1.42,0.08c0.53,0.05,1.11,0.08,1.74,0.08h3.63c4.42,0,8.5,0.03,12.25,0.08
		c3.74,0.05,7.66,0.19,11.77,0.4c0.32-0.42,0.4-0.92,0.24-1.5c-0.16-0.58,0.18-0.87,1.03-0.87c0.53,0,0.87,0.13,1.03,0.4
		c0.16,0.26,0.26,0.58,0.32,0.95c0.05,0.37,0.18,0.69,0.4,0.95c0.21,0.26,0.63,0.4,1.26,0.4c0.42,0,0.87-0.02,1.34-0.08
		c0.47-0.05,0.97-0.08,1.5-0.08c0.53,0.11,1.19,0.13,1.98,0.08c0.79-0.05,1.19,0.24,1.19,0.87c0,0.53-0.45,0.87-1.34,1.03
		c-0.9,0.16-1.61,0.24-2.13,0.24c-0.84,0-1.58-0.1-2.21-0.32c-0.42,0.11-0.66,0.29-0.71,0.55c-0.05,0.26-0.34,0.4-0.87,0.4
		c0.1,1.58,0.16,3.21,0.16,4.9c0,1.69,0,3.37,0,5.06c0,1.79,0,3.5,0,5.14c0,1.63-0.05,3.19-0.16,4.66c0.21,0,0.42,0.03,0.63,0.08
		c0.21,0.05,0.42,0.08,0.63,0.08c0.74,0,1.53-0.05,2.37-0.16c0.84-0.1,1.68-0.16,2.53-0.16c0.53,0,1.24,0.03,2.13,0.08
		c0.89,0.05,1.4,0.4,1.5,1.03c0,0.84-0.74,1.26-2.21,1.26c-0.32,0-0.63-0.02-0.95-0.08c-0.32-0.05-0.63-0.08-0.95-0.08
		c-1.58,0-3.24,0.03-4.98,0.08c-1.74,0.05-3.5,0.08-5.29,0.08c-1.16,0-2.29-0.08-3.4-0.24c-1.11-0.16-2.19-0.24-3.24-0.24h-3.63
		c-1.37,0-2.29-0.13-2.77-0.4c-0.47-0.26-1.19-0.5-2.13-0.71c-2.11,0.21-4.24,0.29-6.4,0.24c-2.16-0.05-4.24-0.02-6.24,0.08
		c0,7.9,0.02,15.78,0.08,23.62c0.05,7.85,0.08,15.83,0.08,23.94c0,1.16-0.05,2.24-0.16,3.24c-0.11,1-0.16,2.08-0.16,3.24
		c0,1.16,0.08,2.27,0.24,3.32c0.16,1.05,0.24,2.16,0.24,3.32v5.37c0,0.32-0.03,0.61-0.08,0.87c-0.05,0.26,0,0.53,0.16,0.79
		c0.16,0.26,0.45,0.47,0.87,0.63c0.42,0.16,1.16,0.24,2.21,0.24c0,0.42-0.55,0.79-1.66,1.11c-1.11,0.32-2.08,0.58-2.92,0.79h-0.95
		c0.1,0.1-0.16,0.18-0.79,0.24c-0.63,0.05-1.4,0.08-2.29,0.08c-0.9,0-1.79,0-2.69,0c-0.9,0-1.45-0.05-1.66-0.16
		c-0.11,0-0.19,0.02-0.24,0.08c-0.05,0.05-0.13,0.08-0.24,0.08c-0.11,0-0.37-0.05-0.79-0.16c-0.42-0.11-0.9-0.16-1.42-0.16
		c-1.16,0-2.29,0.08-3.4,0.24c-1.11,0.16-2.24,0.24-3.4,0.24c-0.32,0-0.58-0.05-0.79-0.16c-0.21,0-0.53,0.1-0.95,0.32v0.16
		c0,0.21-0.05,0.29-0.16,0.24c-0.11-0.05-0.16,0.02-0.16,0.24c-0.53-0.11-1.11-0.42-1.74-0.95c-0.11,0.53-0.16,1.08-0.16,1.66
		c0,0.58,0,1.19,0,1.82v4.58c0,2.11-0.16,3.87-0.47,5.29c-0.32,1.42-0.53,2.4-0.63,2.92c-0.42-0.21-0.77-0.87-1.03-1.98
		c-0.26-1.11-0.4-1.82-0.4-2.13c0-0.63-0.03-1.26-0.08-1.9c-0.05-0.63-0.08-1.32-0.08-2.05c0-0.74,0.02-1.5,0.08-2.29
		c0.05-0.79,0.08-1.56,0.08-2.29c0-0.53-0.16-1.32-0.47-2.37c-0.32-1.05-0.58-1.58-0.79-1.58c-0.21,0-0.37,0.02-0.47,0.08
		c-0.11,0.05-0.21,0.08-0.32,0.08c-0.11-0.11-0.29-0.13-0.55-0.08c-0.26,0.05-0.4-0.03-0.4-0.24c0-0.21,0.16-0.32,0.47-0.32h0.47
		c0.42-0.21,0.74-0.32,0.95-0.32h0.16v-69.68c-0.11-0.21-0.47-0.32-1.11-0.32h-3.63c-0.53,0-0.79,0.19-0.79,0.55
		c0,0.37-0.26,0.55-0.79,0.55c-0.63,0-2.11,0.03-4.42,0.08c-2.32,0.05-4.74,0.11-7.27,0.16c-2.53,0.05-4.77,0.11-6.71,0.16
		c-1.95,0.05-2.92,0.13-2.92,0.24v0.95c0,0.21-0.05,0.45-0.16,0.71c-0.11,0.26-0.21,0.5-0.32,0.71c-0.63-0.1-1-0.45-1.11-1.03
		c-0.11-0.58-0.26-1.13-0.47-1.66c-0.21,0-0.42,0.03-0.63,0.08c-0.21,0.05-0.42,0.08-0.63,0.08c-1.26,0-2.69-0.02-4.27-0.08
		c-1.58-0.05-2.37-0.45-2.37-1.19c0-0.63,0.42-0.95,1.26-0.95h1.11h1.26h2.21c-0.11-0.42-0.16-1.05-0.16-1.9
		c0-0.53,0.02-1.08,0.08-1.66c0.05-0.58,0.08-1.13,0.08-1.66c0-0.84-0.16-1.6-0.47-2.29c-0.32-0.68-0.47-1.13-0.47-1.34
		c0-0.63,0.1-1.05,0.32-1.26c0.21-0.21,0.37-0.58,0.47-1.11c-0.11-0.32-0.21-0.66-0.32-1.03c-0.11-0.37-0.16-0.76-0.16-1.19
		c0-0.21,0.02-0.4,0.08-0.55c0.05-0.16,0.08-0.34,0.08-0.55c0-0.21-0.05-0.37-0.16-0.47c-0.32,0.21-0.47,0.79-0.47,1.74v1.58
		c0,0.63-0.08,1.87-0.24,3.71c-0.16,1.84-0.34,3.45-0.55,4.82c-0.53-0.32-0.84-0.97-0.95-1.98c-0.11-1-0.16-1.98-0.16-2.92
		c0-1.37,0.08-2.84,0.24-4.42c0.16-1.58,0.24-3.11,0.24-4.58c0-0.95-0.42-1.47-1.26-1.58c-0.84-0.1-1.77-0.1-2.77,0
		c-1,0.11-1.92,0.11-2.76,0c-0.84-0.1-1.32-0.58-1.42-1.42c0.21-0.1,0.42-0.26,0.63-0.47c0.21-0.21,0.47-0.32,0.79-0.32
		c0.63,0,1.56,0.03,2.76,0.08c1.21,0.05,2.4,0.08,3.56,0.08c0.21,0,0.32-0.21,0.32-0.63v-0.63c0-0.42,0.16-0.63,0.47-0.63
		c0.53,0,0.76,0.26,0.71,0.79c-0.05,0.53,0.13,0.9,0.55,1.11c0.32,0,0.47-0.21,0.47-0.63c0-0.32-0.03-0.63-0.08-0.95
		c-0.05-0.32-0.08-0.58-0.08-0.79c0-0.74,0.37-1.11,1.11-1.11c0.74,0,1.21,0.53,1.42,1.58c0.1-0.1,0.32-0.16,0.63-0.16
		c0.32,0,0.63,0.03,0.95,0.08c0.32,0.05,0.58,0.08,0.79,0.08c0.84,0,2.66-0.02,5.45-0.08c2.79-0.05,6-0.08,9.64-0.08
		c3.63,0,7.48-0.05,11.53-0.16c4.05-0.1,7.74-0.21,11.06-0.32c3.32-0.1,6.08-0.24,8.29-0.4c2.21-0.16,3.32-0.29,3.32-0.39
		c0-0.21-0.03-0.4-0.08-0.55c-0.05-0.16-0.08-0.34-0.08-0.55c0.1-1.05,0.24-2.16,0.39-3.32c0.16-1.16,0.26-2.16,0.32-3
		c0.05-0.84,0.1-1.47,0.16-1.9C426.67,235.43,426.69,235.32,426.69,235.53z M371.71,253.07c0-0.1,0.05-0.32,0.16-0.63
		c0.1-0.32,0.16-0.63,0.16-0.95c0-0.63-0.21-0.95-0.63-0.95v0.47v1.11C371.39,252.65,371.5,252.97,371.71,253.07z M407.1,251.49
		c-1.37,0.53-2.37,1-3,1.42c-0.63,0.42-1.08,0.77-1.34,1.03c-0.26,0.26-0.47,0.47-0.63,0.63c-0.16,0.16-0.45,0.24-0.87,0.24
		c-0.53,0-1,0.21-1.42,0.63c-0.42,0.42-0.69,0.63-0.79,0.63c-0.11,0-0.16-0.02-0.16-0.08c0-0.05-0.05-0.08-0.16-0.08
		c-0.42,0.42-0.98,0.84-1.66,1.26c-0.69,0.42-1.03,0.58-1.03,0.47v0.16c-1.26,0.63-2.11,1.08-2.53,1.34
		c-0.42,0.26-0.71,0.42-0.87,0.47c-0.16,0.05-0.26,0.13-0.32,0.24c-0.05,0.11-0.34,0.32-0.87,0.63c-0.95,0-1.69,0.4-2.21,1.19
		c-0.53,0.79-0.69,1.03-0.47,0.71c1.26-0.63,2.13-1.11,2.61-1.42s0.79-0.55,0.95-0.71c0.16-0.16,0.26-0.24,0.32-0.24
		c0.05,0,0.34,0,0.87,0c1.79,0,2.87-0.34,3.24-1.03c0.37-0.68,0.66-1.08,0.87-1.19c1.16-1.16,2.11-1.95,2.84-2.37
		c0.74-0.42,1.42-0.71,2.05-0.87c0.63-0.16,1.24-0.34,1.82-0.55c0.58-0.21,1.34-0.79,2.29-1.74c0.1,0,0.47-0.1,1.11-0.32
		c0.63-0.21,0.95-0.47,0.95-0.79C408.26,251.18,407.73,251.28,407.1,251.49z M394.15,251.49c0.1-0.32,0.32-0.47,0.63-0.47
		s0.47-0.16,0.47-0.47h-0.16c-0.74,0-1.11,0.26-1.11,0.79L394.15,251.49z M404.42,257.34c-0.21,0.11-0.42,0.26-0.63,0.47
		c-0.21,0.21-0.37,0.32-0.47,0.32c-0.11-0.1-0.21-0.16-0.32-0.16c-0.95,0.95-2.08,1.77-3.4,2.45c-1.32,0.69-2.5,1.45-3.55,2.29
		c1.16,0,1.95-0.29,2.37-0.87c0.42-0.58,0.58-0.81,0.47-0.71c1.79,0,2.98-0.45,3.56-1.34c0.58-0.89,0.76-1.19,0.55-0.87
		c0.84,0,1.47-0.21,1.9-0.63c0.42-0.42,0.63-0.74,0.63-0.95c0-0.32-0.11-0.47-0.32-0.47C404.99,256.86,404.73,257.02,404.42,257.34z
		 M400.78,251.02c0.1,0,0.26-0.05,0.47-0.16c0.21-0.1,0.32-0.21,0.32-0.32c0-0.1-0.05-0.21-0.16-0.32c0,0.21-0.11,0.32-0.32,0.32
		c-0.21,0-0.32,0.11-0.32,0.32V251.02z M402.84,266.03c0.21-0.1,0.4-0.13,0.55-0.08c0.16,0.05,0.29-0.02,0.4-0.24
		c-0.11-0.1-0.26-0.16-0.47-0.16C402.99,265.55,402.84,265.71,402.84,266.03z M408.05,256.39v-0.32v-0.47
		c0-0.21-0.11-0.32-0.32-0.32c-0.21,0-0.32,0.16-0.32,0.47C407.42,256.18,407.63,256.39,408.05,256.39z M414.69,251.02
		c-0.21,0.32-0.55,0.55-1.03,0.71c-0.47,0.16-0.82,0.45-1.03,0.87h-0.47c-0.32,0-0.66,0.13-1.03,0.4c-0.37,0.26-0.77,0.5-1.19,0.71
		c-0.42,0.42-0.84,0.79-1.26,1.11c0,0.21,0.02,0.37,0.08,0.47c0.05,0.11,0.13,0.26,0.24,0.47c0.21-0.1,0.42-0.24,0.63-0.4
		c0.21-0.16,0.37-0.24,0.47-0.24h0.47c0.84-0.84,1.45-1.39,1.82-1.66c0.37-0.26,0.66-0.45,0.87-0.55c0.21-0.1,0.45-0.18,0.71-0.24
		c0.26-0.05,0.71-0.24,1.34-0.55c0.32-0.21,0.68-0.37,1.11-0.47c0.42-0.1,0.74-0.32,0.95-0.63H414.69z M410.1,338.08
		c0.42,0,0.81-0.05,1.19-0.16c0.37-0.1,0.71-0.16,1.03-0.16h0.79c0.21,0,0.32-0.05,0.32-0.16c-0.32-0.32-0.71-0.6-1.19-0.87
		c-0.47-0.26-0.92-0.53-1.34-0.79c-0.42-0.26-0.77-0.47-1.03-0.63c-0.26-0.16-0.29-0.24-0.08-0.24c0,0.53,0.02,1.03,0.08,1.5
		C409.92,337.05,410,337.55,410.1,338.08z M410.26,325.91c0.21-0.21,0.5-0.45,0.87-0.71c0.37-0.26,0.55-0.5,0.55-0.71v-0.16
		c-0.21,0.21-0.55,0.4-1.03,0.55c-0.47,0.16-0.71,0.34-0.71,0.55C409.95,325.54,410.05,325.7,410.26,325.91z M424.48,250.7
		c-0.53,0.21-1.34,0.53-2.45,0.95c-1.11,0.42-1.82,0.9-2.13,1.42h-0.47c0,0.11-0.05,0.21-0.16,0.32c-0.11,0.11-0.26,0.16-0.47,0.16
		c-0.11-0.1-0.21-0.16-0.32-0.16c0,0.42-0.21,0.63-0.63,0.63c-0.11-0.1-0.21-0.16-0.32-0.16c-0.42,0.42-0.66,0.66-0.71,0.71
		c-0.05,0.05-0.11,0.08-0.16,0.08c-0.05,0-0.16,0.03-0.32,0.08c-0.16,0.05-0.55,0.29-1.19,0.71c-1.05,0.32-1.87,0.77-2.45,1.34
		c-0.58,0.58-0.98,0.87-1.19,0.87c-0.11-0.1-0.21-0.16-0.32-0.16c-0.21,0.21-0.37,0.42-0.47,0.63c-0.11,0.21-0.26,0.37-0.47,0.47
		v0.16c0.21-0.1,0.47-0.21,0.79-0.32c0.32-0.1,0.58-0.26,0.79-0.47l0.95-0.63h0.47v-0.32c0.1,0.11,0.21,0.16,0.32,0.16
		c0.21,0,0.6-0.13,1.18-0.4c0.58-0.26,1.13-0.55,1.66-0.87c0.63-0.42,1.26-0.84,1.9-1.26h0.47l-0.16-0.16c0-0.1,0.08-0.13,0.24-0.08
		c0.16,0.05,0.24,0.03,0.24-0.08v-0.16h0.16h0.32c0.32-0.32,0.66-0.55,1.03-0.71c0.37-0.16,0.71-0.34,1.03-0.55
		c0.42-0.1,0.79-0.21,1.11-0.32c0.63,0,1.34-0.26,2.13-0.79c0.79-0.53,1.19-0.89,1.19-1.11c-0.21-0.21-0.42-0.32-0.63-0.32
		c-0.21,0-0.34,0.03-0.4,0.08c-0.05,0.05-0.13,0.08-0.24,0.08C424.69,250.65,424.58,250.7,424.48,250.7z M425.27,254.81
		c-1.37,0.53-2.74,1.19-4.11,1.98c-1.37,0.79-2.74,1.56-4.11,2.29c0,0.11-0.05,0.16-0.16,0.16l-0.16-0.16l-0.16,0.16l0.16,0.16
		c-1.16,0-1.98,0.16-2.45,0.47c-0.47,0.32-0.79,0.66-0.95,1.03c-0.16,0.37-0.24,0.63-0.24,0.79s-0.11,0.08-0.32-0.24
		c-0.11,0-0.16,0.05-0.16,0.16c-0.11,0-0.53,0.13-1.26,0.4c-0.74,0.26-1.11,0.66-1.11,1.19h0.32c2,0,3.63-0.47,4.9-1.42
		c1.26-0.95,1.68-1.42,1.26-1.42h0.32c0.84-0.42,1.42-0.84,1.74-1.26l0.16,0.16l0.16-0.16v-0.16c0.42,0,0.58-0.02,0.47-0.08
		c-0.11-0.05-0.05-0.08,0.16-0.08h0.32c0-0.1,0.1-0.21,0.32-0.32c0.21-0.1,0.26-0.16,0.16-0.16h0.47c0-0.32,0.1-0.47,0.32-0.47h0.32
		v-0.32l0.32,0.16c0.21,0,0.26-0.05,0.16-0.16c-0.11-0.1-0.11-0.16,0-0.16h0.47v-0.32c0.1,0.11,0.21,0.16,0.32,0.16
		c0.21,0,0.26-0.02,0.16-0.08c-0.11-0.05,0.05-0.18,0.47-0.4c0.1-0.21,0.24-0.29,0.4-0.24c0.16,0.05,0.24,0.03,0.24-0.08v-0.16
		c0.42-0.21,0.84-0.37,1.26-0.47c0.42-0.1,0.63-0.42,0.63-0.95c-0.11-0.1-0.13-0.21-0.08-0.32c0.05-0.1-0.03-0.16-0.24-0.16
		c0,0.21-0.05,0.32-0.16,0.32C425.48,254.65,425.38,254.71,425.27,254.81z M410.58,270.45c0-0.21,0.05-0.32,0.16-0.32
		c0.1,0,0.21-0.1,0.32-0.32h-0.79c0.1,0.21,0.13,0.37,0.08,0.47C410.29,270.4,410.37,270.45,410.58,270.45z M412.63,278.98
		c-0.21,0-0.34,0.08-0.4,0.24c-0.05,0.16-0.19,0.29-0.4,0.4c-0.32,0.21-0.66,0.34-1.03,0.4c-0.37,0.05-0.55,0.4-0.55,1.03
		c0.21,0,0.42-0.08,0.63-0.24c0.21-0.16,0.42-0.34,0.63-0.55l0.63-0.63h0.47c0.1-0.1,0.29-0.26,0.55-0.47
		c0.26-0.21,0.4-0.37,0.4-0.47c0-0.1-0.05-0.16-0.16-0.16c0,0.21-0.08,0.29-0.24,0.24C413.03,278.7,412.84,278.77,412.63,278.98z
		 M413.42,297.63c-0.74,0-1.45,0.26-2.13,0.79c-0.69,0.53-1.03,0.9-1.03,1.11c0,0.32,0.1,0.47,0.32,0.47
		c0.42-0.42,0.87-0.81,1.34-1.19C412.39,298.45,412.89,298.05,413.42,297.63z M422.11,313.27c-1.48,1.48-2.66,2.37-3.56,2.69
		c-0.9,0.32-1.24,0.47-1.03,0.47c-0.32,0-0.79,0.32-1.42,0.95l-0.79,0.79l-0.16-0.16c-0.84,0.53-1.56,1.05-2.13,1.58
		c-0.58,0.53-0.87,0.84-0.87,0.95h0.16c2-1.05,3.95-2.13,5.85-3.24s3.9-2.08,6-2.92c0-1.16-0.16-1.9-0.47-2.21
		c-0.21,0.21-0.47,0.42-0.79,0.63C422.59,313.01,422.32,313.17,422.11,313.27z M422.74,320.38c-2.63,1.9-4.29,3.16-4.98,3.79
		c-0.69,0.63-1.05,1.03-1.11,1.18c-0.05,0.16-0.19,0.32-0.4,0.47c-0.21,0.16-1.16,0.66-2.84,1.5c0,0.21-0.16,0.4-0.47,0.55
		c-0.32,0.16-0.47,0.4-0.47,0.71c0,0.11,0.05,0.16,0.16,0.16c0.74-0.74,1.68-1.29,2.84-1.66c1.16-0.37,1.84-0.81,2.05-1.34
		c0.21,0,0.58-0.13,1.11-0.4c0.53-0.26,1.05-0.55,1.58-0.87c0.53-0.32,1-0.6,1.42-0.87c0.42-0.26,0.68-0.4,0.79-0.4
		c0.32-0.32,0.6-0.5,0.87-0.55c0.26-0.05,0.47-0.16,0.63-0.32c0.16-0.16,0.29-0.45,0.4-0.87c0.1-0.42,0.16-1.11,0.16-2.05
		c-0.32,0-0.61,0.11-0.87,0.32C423.35,319.96,423.06,320.17,422.74,320.38z M413.74,270.77c0.1-0.21,0.26-0.37,0.47-0.47
		c0.21-0.1,0.37-0.26,0.47-0.47c-0.74,0-1.11,0.26-1.11,0.79C413.58,270.72,413.63,270.77,413.74,270.77z M422.74,287.04
		c0,0.32-0.4,0.71-1.18,1.19c-0.79,0.47-1.13,0.66-1.03,0.55c-1.48,1.9-2.74,2.95-3.79,3.16c-1.05,0.21-1.58,0.53-1.58,0.95
		c0,0.11,0.05,0.16,0.16,0.16c0-0.21,0.16-0.45,0.47-0.71c0.32-0.26,0.68-0.47,1.11-0.63c0.42-0.16,0.74-0.26,0.95-0.32
		c0.21-0.05,0.26-0.02,0.16,0.08c0.42-0.42,1-0.81,1.74-1.19c0.74-0.37,1.47-0.76,2.21-1.19c0.74-0.42,1.37-0.79,1.9-1.11
		c0.53-0.32,0.79-0.58,0.79-0.79v-0.95c-0.42,0.11-0.77,0.24-1.03,0.4C423.35,286.81,423.06,286.94,422.74,287.04z M422.11,281.83
		c-0.32,0.32-0.84,0.71-1.58,1.19c-0.74,0.47-1.5,0.95-2.29,1.42s-1.48,0.92-2.05,1.34c-0.58,0.42-0.87,0.74-0.87,0.95
		c0,0.11,0.05,0.16,0.16,0.16c0.84-0.84,1.92-1.5,3.24-1.98c1.32-0.47,1.87-0.71,1.66-0.71c0.42-0.42,0.87-0.71,1.34-0.87
		s0.92-0.32,1.34-0.47c0.42-0.16,0.76-0.4,1.03-0.71c0.26-0.32,0.4-0.84,0.4-1.58c-0.53,0.21-0.95,0.42-1.26,0.63
		C422.9,281.41,422.53,281.62,422.11,281.83z M422.59,294.63c-2.42,1.16-4.08,2.32-4.98,3.48c-0.9,1.16-1.34,1.63-1.34,1.42
		c0,0.11,0.05,0.16,0.16,0.16c0.53-0.74,1.26-1.37,2.21-1.9c0.95-0.53,1.87-1,2.77-1.42c0.89-0.42,1.66-0.79,2.29-1.11
		c0.63-0.32,0.95-0.68,0.95-1.11v-0.95c-0.42,0.21-0.79,0.45-1.11,0.71C423.22,294.18,422.9,294.42,422.59,294.63z M422.74,270.14
		h-0.63c-0.21,0-0.61,0.11-1.19,0.32c-0.58,0.21-1.19,0.47-1.82,0.79s-1.19,0.69-1.66,1.11c-0.47,0.42-0.71,0.84-0.71,1.26
		c0,0.11,0.05,0.16,0.16,0.16c0.74-0.74,1.68-1.24,2.84-1.5c1.16-0.26,1.42-0.4,0.79-0.4c1.68-0.84,2.69-1.26,3-1.26
		c0.21,0,0.26,0.05,0.16,0.16h0.47c0.21,0,0.32-0.16,0.32-0.47c-0.21-0.21-0.42-0.32-0.63-0.32c-0.21,0-0.39,0.03-0.55,0.08
		C423.14,270.11,422.95,270.14,422.74,270.14z M417.37,279.62c-0.11,0-0.16,0.05-0.16,0.16h0.16c0.95-0.95,1.63-1.39,2.05-1.34
		c0.42,0.05,0.53,0.08,0.32,0.08h0.32v-0.32l0.32,0.16c0.21,0,0.26-0.05,0.16-0.16c-0.11-0.1-0.11-0.16,0-0.16h0.47v-0.32
		c0.1,0.11,0.21,0.16,0.32,0.16c0.21,0,0.26-0.08,0.16-0.24c-0.11-0.16,0.05-0.24,0.47-0.24h0.47c0.21-0.21,0.53-0.47,0.95-0.79
		c0.42-0.32,0.79-0.53,1.11-0.63c-0.11-0.21-0.13-0.53-0.08-0.95c0.05-0.42-0.03-0.63-0.24-0.63c-1.16,0.84-2.29,1.69-3.4,2.53
		C419.66,277.77,418.53,278.67,417.37,279.62z M422.74,300.31c-0.42-0.1-0.74,0.08-0.95,0.55c-0.21,0.47-0.47,0.71-0.79,0.71
		c-0.11-0.1-0.21-0.16-0.32-0.16c-0.11,0.11-0.32,0.34-0.63,0.71c-0.32,0.37-0.53,0.55-0.63,0.55c-0.11-0.1-0.21-0.16-0.32-0.16
		c-0.21,0.21-0.4,0.42-0.55,0.63c-0.16,0.21-0.34,0.42-0.55,0.63c-0.21,0.32-0.42,0.53-0.63,0.63c0.1,0,0.26-0.1,0.47-0.32
		c0.84,0,1.53-0.37,2.05-1.11c0.53-0.74,0.79-1.05,0.79-0.95l0.32,0.16l0.16-0.16v-0.16c0.42,0,0.58-0.02,0.47-0.08
		c-0.11-0.05-0.05-0.08,0.16-0.08h0.32c0.21-0.21,0.6-0.5,1.19-0.87c0.58-0.37,0.87-0.71,0.87-1.03v-0.47
		C423.74,299.47,423.27,299.79,422.74,300.31z M421.01,261.6c-0.95,0.95-1.63,1.34-2.05,1.19c-0.42-0.16-0.9,0.08-1.42,0.71
		c2.11-0.53,3.82-1.11,5.14-1.74c1.32-0.63,1.97-1.21,1.97-1.74c-0.74,0.21-1.4,0.47-1.97,0.79
		C422.08,261.13,421.53,261.39,421.01,261.6z M422.11,306.95c-0.63,0-1.13,0.19-1.5,0.55c-0.37,0.37-0.69,0.74-0.95,1.11
		c-0.26,0.37-0.45,0.66-0.55,0.87c-0.11,0.21-0.16,0.11-0.16-0.32c-0.21,0.21-0.5,0.45-0.87,0.71c-0.37,0.26-0.55,0.45-0.55,0.55
		c0,0.11,0.1,0.16,0.32,0.16c0.21-0.42,0.66-0.79,1.34-1.11c0.68-0.32,1.37-0.6,2.05-0.87c0.68-0.26,1.32-0.6,1.9-1.03
		c0.58-0.42,0.87-1.05,0.87-1.9c-0.42,0.11-0.79,0.32-1.11,0.63C422.59,306.63,422.32,306.85,422.11,306.95z M423.22,327.33
		c-0.11,0.11-0.26,0.21-0.47,0.32c-0.21,0.11-0.32,0.11-0.32,0v0.16c-0.95,0.53-1.66,0.95-2.13,1.26c-0.47,0.32-0.79,0.55-0.95,0.71
		c-0.16,0.16-0.26,0.26-0.32,0.32c-0.05,0.05-0.13,0.08-0.24,0.08c-0.11-0.1-0.21-0.16-0.32-0.16c-0.21,0.21-0.32,0.42-0.32,0.63
		c0,0.11,0.05,0.16,0.16,0.16c0.1,0,0.21-0.05,0.32-0.16l0.47-0.47c0.21-0.21,0.47-0.37,0.79-0.47h0.47c0-0.1-0.03-0.16-0.08-0.16
		c-0.05,0-0.08-0.05-0.08-0.16h0.16h0.32v-0.16h0.16h0.32c0.74-0.32,1.26-0.74,1.58-1.26l0.32,0.16l0.16-0.16v-0.16
		c0.42,0,0.58-0.02,0.47-0.08c-0.11-0.05-0.05-0.08,0.16-0.08h0.32c0.32-0.32,0.47-0.63,0.47-0.95h-0.32
		c-0.32,0-0.53,0.08-0.63,0.24C423.59,327.1,423.43,327.23,423.22,327.33z M422.59,265.08c0.21,0,0.42,0,0.63,0
		c0.21,0,0.32-0.1,0.32-0.32v-0.16C422.9,264.61,422.59,264.76,422.59,265.08z M424.17,331.6c0.1,0.11,0.21,0.16,0.32,0.16
		c0.42,0,0.63-0.16,0.63-0.47l-0.32-0.32c0,0.21-0.11,0.32-0.32,0.32C424.27,331.28,424.17,331.39,424.17,331.6z M424.8,338.08h0.95
		c0-0.42-0.16-0.74-0.47-0.95c0,0.21-0.08,0.34-0.24,0.4c-0.16,0.05-0.24,0.19-0.24,0.4V338.08z M433.96,250.23
		c-0.95,0.95-1.79,1.58-2.53,1.9c-0.74,0.32-1.32,0.5-1.74,0.55c-0.42,0.05-0.74,0.11-0.95,0.16c-0.21,0.05-0.32,0.4-0.32,1.03
		c0.1,0.11,0.21,0.16,0.32,0.16c0.63,0,0.95-0.21,0.95-0.63l0.16,0.16l0.16-0.16v-0.16h0.47v-0.16h0.16h0.32
		c-0.11-0.21,0.02-0.34,0.4-0.4c0.37-0.05,0.4-0.08,0.08-0.08h0.47c0.32-0.32,0.74-0.58,1.26-0.79c0.32-0.1,0.58-0.21,0.79-0.32
		h0.47c0-0.32,0.16-0.47,0.47-0.47h0.47l-0.16-0.16c0-0.21,0.16-0.29,0.47-0.24c0.32,0.05,0.47-0.02,0.47-0.24
		c0-0.1-0.29-0.16-0.87-0.16C434.72,250.23,434.28,250.23,433.96,250.23z M429.7,258.44c1.47-0.74,2.29-1.21,2.45-1.42
		c0.16-0.21,0.5-0.32,1.03-0.32h0.32c0.21-0.21,0.47-0.42,0.79-0.63c0.32-0.21,0.58-0.42,0.79-0.63c0.1,0.11,0.21,0.16,0.32,0.16
		c0.1,0,0.37-0.1,0.79-0.32c0.42-0.21,0.84-0.42,1.26-0.63l-0.16-0.16l0.16-0.16l0.16,0.16l0.63-0.63c1.9-0.63,3.11-1.08,3.63-1.34
		c0.53-0.26,0.89-0.47,1.11-0.63c0.21-0.16,0.47-0.34,0.79-0.55c0.32-0.21,1.21-0.58,2.69-1.11c0-0.32-0.16-0.47-0.47-0.47
		c-0.11,0.21-0.37,0.32-0.79,0.32h-0.95c-0.21,0-0.32,0.05-0.32,0.16c0,0.11-0.05,0.16-0.16,0.16c-0.11-0.1-0.21-0.16-0.32-0.16
		c0,0.21-0.16,0.32-0.47,0.32c0,0.21,0.05,0.26,0.16,0.16c0.1-0.1,0.05-0.05-0.16,0.16c-1.37,1.05-2.82,1.84-4.34,2.37
		c-1.53,0.53-2.4,0.84-2.61,0.95c0-0.1-0.16-0.08-0.47,0.08c-0.32,0.16-0.37,0.24-0.16,0.24c-0.11-0.1-0.21-0.16-0.32-0.16v0.32
		h-0.32c-0.21,0-0.34,0.08-0.4,0.24c-0.05,0.16-0.24,0.24-0.55,0.24v0.16c-0.21,0.11-0.63,0.37-1.26,0.79
		c-0.32,0.21-0.63,0.37-0.95,0.47l-0.32-0.16h-0.16c0,0.11,0.02,0.16,0.08,0.16c0.05,0,0.08,0.05,0.08,0.16h-0.47
		c-0.32,0-0.77,0.21-1.34,0.63c-0.58,0.42-0.87,0.74-0.87,0.95c0,0.42,0.1,0.63,0.32,0.63c0.1,0,0.24-0.08,0.4-0.24
		C429.46,258.52,429.59,258.44,429.7,258.44z M432.38,261.45v-0.32c0.1,0.11,0.21,0.16,0.32,0.16c0.21,0,0.26-0.05,0.16-0.16
		c-0.11-0.1,0.05-0.16,0.47-0.16c-0.11,0-0.16-0.05-0.16-0.16h0.16h0.47c0-0.1-0.03-0.16-0.08-0.16c-0.05,0-0.08-0.05-0.08-0.16
		h0.47c1.26-1.26,2.16-2,2.69-2.21c0.53-0.21,0.89-0.26,1.11-0.16c0.21,0.11,0.29,0.26,0.24,0.47c-0.05,0.21-0.08,0.11-0.08-0.32
		c0-0.21-0.11-0.32-0.32-0.32c-0.11,0.11-0.47,0.37-1.11,0.79c-0.32,0.21-0.58,0.37-0.79,0.47c-0.11-0.1-0.21-0.16-0.32-0.16
		c-0.84,0.42-1.69,0.87-2.53,1.34c-0.84,0.47-1.69,0.87-2.53,1.19v0.16l-0.16,0.32h0.16c0.21-0.21,0.5-0.34,0.87-0.4
		C431.72,261.63,432.07,261.55,432.38,261.45z M446.29,258.92l-0.47,0.47c-1.79,0.63-3.37,1.24-4.74,1.82
		c-1.37,0.58-1.95,0.87-1.74,0.87c-0.53,0.21-1,0.37-1.42,0.47c-0.42,0.11-0.84,0.32-1.26,0.63c2.11,0,3.53-0.13,4.27-0.4
		c0.74-0.26,1.16-0.55,1.26-0.87c0.1-0.32,0.08-0.55-0.08-0.71c-0.16-0.16-0.08-0.08,0.24,0.24c2-0.74,3.37-1.37,4.11-1.9
		c0.42-0.32,0.63-0.53,0.63-0.63l-0.16-0.16l-0.16,0.16h-0.32H446.29z M447.55,253.86c0.32,0,0.58-0.16,0.79-0.47
		c-0.21,0-0.42,0.05-0.63,0.16c-0.21,0.11-0.32,0.21-0.32,0.32H447.55z M455.77,249.6c-0.21,0.21-0.69,0.47-1.42,0.79
		c-0.74,0.32-1.5,0.69-2.29,1.11c-0.79,0.42-1.5,0.79-2.13,1.11s-0.95,0.53-0.95,0.63h0.16c0.63-0.32,1.47-0.66,2.53-1.03
		c1.05-0.37,2.11-0.71,3.16-1.03c1.05-0.32,1.95-0.63,2.69-0.95c0.74-0.32,1.16-0.53,1.26-0.63H455.77z M454.66,263.66
		c-0.21,0.21-0.45,0.32-0.71,0.32c-0.26,0-0.4,0.05-0.4,0.16h0.32h1.58c0.42,0,0.68-0.05,0.79-0.16c-0.32-0.32-0.58-0.47-0.79-0.47
		c-0.21,0-0.37,0.03-0.47,0.08C454.87,263.63,454.76,263.66,454.66,263.66z M455.29,259.55l-0.16,0.32h-0.16
		c0,0.11,0.05,0.16,0.16,0.16c1.26-0.21,2.42-0.6,3.48-1.18c1.05-0.58,1.63-1.03,1.74-1.34c-0.95,0.21-1.79,0.55-2.53,1.03
		C457.08,259,456.24,259.34,455.29,259.55z M457.35,263.97c0.84,0,1.29,0.03,1.34,0.08c0.05,0.05,0.4,0.4,1.03,1.03l-0.47,0.47
		c-0.11,0.21-0.26,0.37-0.47,0.47c0.42,0,0.74-0.08,0.95-0.24c0.21-0.16,0.47-0.24,0.79-0.24c-0.11-0.53-0.16-1.32-0.16-2.37
		c0-1.05-0.16-1.58-0.47-1.58c-0.42,0.42-0.84,0.79-1.26,1.11C458.19,263.03,457.77,263.45,457.35,263.97z M459.4,267.61
		c0.74,0,1.21,0.42,1.42,1.26l-0.16,0.16c0.1,0.11,0.21,0.16,0.32,0.16c0-0.74-0.16-1.53-0.47-2.37
		C459.98,266.82,459.61,267.08,459.4,267.61z"/>
	<path class="st0" d="M582.01,241.06c0.21,0.32,0.32,0.95,0.32,1.9v2.05c0,0.74,0.4,1.24,1.19,1.5c0.79,0.26,1.45,0.5,1.98,0.71
		c-0.74,0.74-1.74,1.11-3,1.11c0,4.21,0.02,8.45,0.08,12.72c0.05,4.27,0.08,8.56,0.08,12.88c0,2.53-0.45,4.74-1.34,6.64
		c-0.9,1.9-1.84,3.48-2.84,4.74c-1,1.26-1.92,2.21-2.76,2.84c-0.84,0.63-1.21,0.95-1.11,0.95c-0.11-0.1-0.21-0.16-0.32-0.16
		c-0.21,0.21-0.53,0.47-0.95,0.79c-0.42,0.32-0.84,0.53-1.26,0.63c0.32,0.42,1.29,0.58,2.92,0.47c1.63-0.1,3.03-0.05,4.19,0.16v0.16
		c0,0.11-0.05,0.21-0.16,0.32c-0.11,0.11-0.16,0.21-0.16,0.32c0,0.11,0.05,0.19,0.16,0.24c0.1,0.05,0.16,0.13,0.16,0.24
		c0,0.32-0.53,0.47-1.58,0.47l-0.32-0.16c0-0.1-0.47-0.02-1.42,0.24c-0.95,0.26-1.42,0.34-1.42,0.24c0,0.11,0.24,0.42,0.71,0.95
		c0.47,0.53,1,1.05,1.58,1.58c0.58,0.53,1.05,0.95,1.42,1.26c0.37,0.32,0.45,0.37,0.24,0.16c0.21,0.21,0.45,0.45,0.71,0.71
		c0.26,0.26,0.5,0.5,0.71,0.71c0.21,0.32,0.42,0.58,0.63,0.79v0.32c0.32,0.21,0.58,0.71,0.79,1.5c0.21,0.79,0.42,1.61,0.63,2.45
		c0.21,0.84,0.37,1.56,0.47,2.13c0.1,0.58,0.16,0.71,0.16,0.4c0.1,0.42,0.16,1.11,0.16,2.05c0,0.84-0.05,1.71-0.16,2.61
		c-0.11,0.9-0.16,1.77-0.16,2.61c0,1.37,0.4,2.19,1.19,2.45c0.79,0.26,1.66,0.4,2.61,0.4h0.32c-0.42,0.32-1.03,0.53-1.82,0.63
		c-0.79,0.11-1.5,0.26-2.13,0.47c0,4.64-0.03,9.19-0.08,13.67c-0.05,4.48-0.29,8.77-0.71,12.88c-0.21-0.11-0.4-0.77-0.55-1.98
		c-0.16-1.21-0.29-2.69-0.4-4.42c-0.11-1.74-0.19-3.58-0.24-5.53c-0.05-1.95-0.08-3.71-0.08-5.29c-0.53,0.53-0.84,0.95-0.95,1.26
		c-0.11,0.32-0.13,0.61-0.08,0.87c0.05,0.26,0.08,0.55,0.08,0.87c0,0.32-0.21,0.69-0.63,1.11c-0.63,1.05-0.84,1.56-0.63,1.5
		c0.21-0.05,0.05,0.03-0.47,0.24v0.47c-0.53,0.42-1,0.84-1.42,1.26c-0.42,0.32-0.77,0.63-1.03,0.95c-0.26,0.32-0.5,0.58-0.71,0.79
		c-1.05,0.53-1.74,0.95-2.05,1.26c-0.32,0.32-0.79,0.47-1.42,0.47h-0.16c0.1,0.32,0.42,0.47,0.95,0.47h0.79
		c0.32,0.11,0.58,0.21,0.79,0.32c0.21,0.11,0.47,0.32,0.79,0.63c0,0.53-0.32,0.84-0.95,0.95c-0.63,0.1-0.84,0.16-0.63,0.16
		c-1.16,0-3,0.08-5.53,0.24c-2.53,0.16-4.74,0.24-6.64,0.24c-1.79,0-3.93-0.11-6.4-0.32c-2.48-0.21-5.03-0.32-7.66-0.32
		c-2.74,0-5.29,0.1-7.66,0.32c-2.37,0.21-4.61,0.32-6.71,0.32c-6.64,0-13.25-0.11-19.83-0.32c-6.58-0.21-13.19-0.32-19.83-0.32
		c-1.16,0-2.05,0.1-2.69,0.32c-0.63,0.21-1.37,0.42-2.21,0.63c-0.84,0-1.4-0.13-1.66-0.4c-0.26-0.26-0.98-0.39-2.13-0.39
		c-0.63,0-1.32,0.02-2.05,0.08c-0.74,0.05-1.48,0.08-2.21,0.08c-0.74,0-1.26-0.05-1.58-0.16c-0.21,0.21-0.32,0.42-0.32,0.63
		c0,0.21,0.02,0.37,0.08,0.47c0.05,0.1,0.08,0.26,0.08,0.47c-0.21,1.26-0.32,2.69-0.32,4.27s0,3.16,0,4.74
		c0,1.58-0.05,3.11-0.16,4.58c-0.11,1.47-0.32,2.74-0.63,3.79c-0.53-0.21-0.84-0.87-0.95-1.98c-0.11-1.11-0.16-1.92-0.16-2.45
		c0-0.21-0.03-0.45-0.08-0.71c-0.05-0.26-0.08-0.5-0.08-0.71c0-0.53,0.02-1.03,0.08-1.5c0.05-0.47,0.08-0.98,0.08-1.5
		c-0.21-0.63-0.32-1.21-0.32-1.74c0-0.53,0-1.11,0-1.74v-4.9c0-0.42,0.02-0.82,0.08-1.19c0.05-0.37-0.19-0.55-0.71-0.55h-2.21
		c-0.53,0-1.16-0.03-1.9-0.08c-0.74-0.05-1.11-0.45-1.11-1.19c0-0.63,0.42-0.95,1.26-0.95h1.58c2-0.21,3-0.45,3-0.71
		c0-0.26,0-0.92,0-1.98c-0.74-0.1-1.11-0.74-1.11-1.9c0-0.53,0.13-0.95,0.4-1.26c0.26-0.32,0.5-0.74,0.71-1.26c0-0.42,0-1.37,0-2.84
		c0-1.47,0-3,0-4.58c0-1.58,0-3,0-4.27s-0.05-1.9-0.16-1.9h-0.79c0.32,0,0.13-0.02-0.55-0.08c-0.69-0.05-1.03-0.4-1.03-1.03
		c0-0.63,0.34-0.87,1.03-0.71c0.68,0.16,1.19,0.08,1.5-0.24c0-3.16,0.02-6.48,0.08-9.95c0.05-3.48,0.08-6.85,0.08-10.11
		c0-0.95-0.03-1.95-0.08-3c-0.05-1.05-0.24-1.95-0.55-2.69c0.42-1.26,0.63-2.74,0.63-4.42c0-0.74,0.02-1.9,0.08-3.48
		c0.05-1.58,0.05-3.18,0-4.82c-0.05-1.63-0.16-3.05-0.32-4.27c-0.16-1.21-0.45-1.82-0.87-1.82h-0.95c-0.95,0-1.42-0.37-1.42-1.11
		c0-0.63,0.53-0.95,1.58-0.95h1.26c0.21,0,0.34-0.89,0.39-2.69c0.05-1.79,0.08-3.84,0.08-6.16c0-2.32,0-4.55,0-6.71
		c0-2.16,0-3.56,0-4.19c-0.21-0.21-0.53-0.32-0.95-0.32c-0.21,0-0.42,0.03-0.63,0.08c-0.21,0.05-0.42,0.08-0.63,0.08
		c-0.53,0-0.84-0.1-0.95-0.32c-0.11,0-0.19,0.03-0.24,0.08c-0.05,0.05-0.13,0.08-0.24,0.08c-0.42,0-1.16-0.02-2.21-0.08
		c-1.05-0.05-1.9-0.18-2.53-0.4c-0.1-0.1-0.16-0.24-0.16-0.4s-0.1-0.24-0.32-0.24c0-0.42,0.37-0.74,1.11-0.95
		c0.74-0.21,1.58-0.34,2.53-0.4c0.95-0.05,1.87-0.05,2.77,0c0.89,0.05,1.55,0.03,1.98-0.08l0.32,0.16c0.42,0,0.6-0.16,0.55-0.47
		c-0.05-0.32,0.24-0.47,0.87-0.47c0.53,0,0.81,0.13,0.87,0.39c0.05,0.26,0.18,0.4,0.4,0.4h24.81c0.84,0,1.74,0.03,2.69,0.08
		c0.95,0.05,1.9,0.08,2.84,0.08c1.58,0,3.16-0.16,4.74-0.47c0.53,0,1.11,0.08,1.74,0.24c0.63,0.16,1.37,0.24,2.21,0.24
		c0.84,0,1.68-0.02,2.53-0.08c0.84-0.05,1.68-0.08,2.53-0.08c0.84,0,1.71,0.03,2.61,0.08c0.89,0.05,1.76,0.08,2.61,0.08
		c1.16,0,2.03-0.13,2.61-0.4c0.58-0.26,1.19-0.4,1.82-0.4c0.42,0,0.71,0.11,0.87,0.32c0.16,0.21,0.34,0.32,0.55,0.32h0.16
		c1.79,0,3.58,0.03,5.37,0.08c1.79,0.05,3.58,0.08,5.37,0.08c0.1,0,0.87-0.02,2.29-0.08c1.42-0.05,3.05-0.08,4.9-0.08
		c1.84,0,3.61-0.02,5.29-0.08c1.68-0.05,2.79-0.08,3.32-0.08c1.79,0,3.53,0.08,5.21,0.24c1.68,0.16,3.42,0.24,5.21,0.24
		c0.63,0,1.29-0.05,1.97-0.16c0.68-0.1,1.4-0.16,2.13-0.16h4.58c1.26,0,1.9-0.55,1.9-1.66s0.05-2.13,0.16-3.08
		c0.1-0.1,0.24-0.16,0.4-0.16c0.16,0,0.24-0.1,0.24-0.32C581.58,240.96,581.79,241.06,582.01,241.06z M477.88,251.65v-0.16
		c0-0.21,0.08-0.32,0.24-0.32c0.16,0,0.24-0.05,0.24-0.16c0-0.1-0.05-0.16-0.16-0.16c-0.11,0.11-0.24,0.21-0.4,0.32
		c-0.16,0.11-0.24,0.21-0.24,0.32v0.16H477.88z M477.73,254.65v0.32v1.26c0,0.32,0.05,0.47,0.16,0.47c0.32-0.32,0.63-0.66,0.95-1.03
		c0.32-0.37,0.63-0.71,0.95-1.03c0.42-0.42,0.79-0.84,1.11-1.26c0-0.1-0.05-0.21-0.16-0.32c-0.42,0.42-0.84,0.79-1.26,1.11
		C479.04,254.49,478.46,254.65,477.73,254.65z M480.89,257.02c-0.32,0.21-0.61,0.47-0.87,0.79c-0.26,0.32-0.66,0.58-1.19,0.79
		c-0.32,0-0.69-0.1-1.11-0.32v0.47v1.26c0,0.32,0.05,0.53,0.16,0.63c0.74-1.47,1.42-2.47,2.05-3c0.63-0.53,1.16-0.87,1.58-1.03
		c0.42-0.16,0.74-0.26,0.95-0.32c0.21-0.05,0.32-0.34,0.32-0.87v-0.16c-0.21,0.42-0.5,0.74-0.87,0.95
		C481.54,256.44,481.2,256.71,480.89,257.02z M477.88,267.61c0.1-0.21,0.21-0.32,0.32-0.32c0.1,0,0.16-0.1,0.16-0.32h-0.16
		c-0.32,0-0.47,0.16-0.47,0.47C477.73,267.56,477.78,267.61,477.88,267.61z M477.88,272.66c0.1-0.21,0.21-0.34,0.32-0.4
		c0.1-0.05,0.16-0.13,0.16-0.24h-0.63C477.73,272.45,477.78,272.66,477.88,272.66z M477.88,277.4c0.1-0.21,0.24-0.37,0.4-0.47
		c0.16-0.1,0.29-0.26,0.4-0.47h-0.32c-0.42,0-0.63,0.21-0.63,0.63C477.73,277.3,477.78,277.4,477.88,277.4z M479.15,289.89
		c-0.21,0.21-0.42,0.37-0.63,0.47c-0.21,0.11-0.47,0.21-0.79,0.32v0.16v0.79c0,0.21,0.05,0.32,0.16,0.32l3-3l-0.16-0.16
		c-0.21,0.21-0.5,0.42-0.87,0.63C479.49,289.63,479.25,289.78,479.15,289.89z M477.88,301.89c0-0.1,0.1-0.21,0.32-0.32
		c0.21-0.1,0.32-0.21,0.32-0.32c0-0.1-0.05-0.16-0.16-0.16c0,0.11-0.11,0.19-0.32,0.24c-0.21,0.05-0.32,0.19-0.32,0.4
		C477.73,301.84,477.78,301.89,477.88,301.89z M483.89,317.38c-0.63,0.53-1.48,1.16-2.53,1.9c-1.05,0.74-2,1.11-2.84,1.11
		c-0.32,0-0.58-0.05-0.79-0.16v2.53v1.26c0,0.32,0.05,0.53,0.16,0.63c1.16-1.26,2.37-2.47,3.63-3.63c1.26-1.16,2.47-2.37,3.63-3.63
		H483.89z M484.52,333.18c-0.32,0.32-0.61,0.55-0.87,0.71c-0.26,0.16-0.5,0.45-0.71,0.87h-0.32c-0.53,0-1.05,0.19-1.58,0.55
		c-0.53,0.37-1,0.74-1.42,1.11c-0.42,0.37-0.71,0.66-0.87,0.87c-0.16,0.21-0.13,0.21,0.08,0c-0.11,0-0.21-0.02-0.32-0.08
		c-0.11-0.05-0.26-0.08-0.47-0.08c-0.21,0-0.32,0.16-0.32,0.47c0.53,0,1.11,0.03,1.74,0.08c0.63,0.05,1.21,0.08,1.74,0.08
		c0.32,0,0.6-0.02,0.87-0.08c0.26-0.05,0.5-0.08,0.71-0.08c0.21,0,0.37,0.03,0.47,0.08c0.1,0.05,0.26,0.08,0.47,0.08
		c0.21,0,0.42-0.1,0.63-0.32c-0.42,0-0.63-0.26-0.63-0.79c0-0.74,0.29-1.42,0.87-2.05c0.58-0.63,0.87-1.21,0.87-1.74
		c0-0.1-0.11-0.16-0.32-0.16v0.16c0,0.11-0.05,0.13-0.16,0.08C484.89,332.89,484.73,332.97,484.52,333.18z M482.78,248.49
		c-0.11,0.21-0.24,0.37-0.4,0.47c-0.16,0.11-0.24,0.26-0.24,0.47c0,0.21,0.05,0.32,0.16,0.32c0.1-0.32,0.29-0.53,0.55-0.63
		c0.26-0.1,0.5-0.32,0.71-0.63H482.78z M484.99,337.6c0.42,0,0.74,0,0.95,0c0.21,0,0.42-0.26,0.63-0.79c-0.42,0-0.74,0.08-0.95,0.24
		C485.41,337.21,485.2,337.39,484.99,337.6z M492.89,257.65c-0.32,0.32-0.84,0.74-1.58,1.26c-0.74,0.53-1.48,1.11-2.21,1.74
		c-0.74,0.63-1.4,1.19-1.98,1.66c-0.58,0.47-0.87,0.77-0.87,0.87c0,0.11,0.05,0.16,0.16,0.16c0-0.1,0.16-0.32,0.47-0.63
		c0.32-0.32,0.66-0.6,1.03-0.87c0.37-0.26,0.71-0.5,1.03-0.71c0.32-0.21,0.42-0.26,0.32-0.16c0.63,0,1.05-0.16,1.26-0.47
		c0.21-0.32,0.32-0.37,0.32-0.16v-0.16c1.05-0.53,2-1.08,2.84-1.66c0.84-0.58,1.26-1.34,1.26-2.29c-0.42,0.11-0.79,0.32-1.11,0.63
		S493.21,257.44,492.89,257.65z M488.47,314.53h-0.16c-0.21,0-0.4,0.11-0.55,0.32c-0.16,0.21-0.24,0.26-0.24,0.16
		c0,0.11,0.05,0.16,0.16,0.16c0.1,0,0.26-0.05,0.47-0.16c0.21-0.1,0.32-0.21,0.32-0.32V314.53z M495.9,274.4
		c-1.69,1.69-3.37,2.84-5.06,3.48c-1.69,0.63-2.53,1.42-2.53,2.37c0,0.11,0.05,0.16,0.16,0.16c0.95-0.95,1.71-1.63,2.29-2.05
		c0.58-0.42,1.03-0.68,1.34-0.79c0.42-0.1,0.68-0.05,0.79,0.16c0.63-0.63,1.45-1.11,2.45-1.42c1-0.32,1.5-0.95,1.5-1.9
		c0-0.42-0.11-0.63-0.32-0.63c-0.21,0-0.34,0.08-0.4,0.24C496.08,274.17,496,274.3,495.9,274.4z M495.42,305.53
		c-1.16,0.42-1.98,1.03-2.45,1.82c-0.47,0.79-0.92,1.19-1.34,1.19c-0.63,0.53-1.34,1.05-2.13,1.58c-0.79,0.53-1.19,0.9-1.19,1.11
		h0.16c0.21-0.1,0.47-0.26,0.79-0.47c0.21-0.1,0.42-0.21,0.63-0.32c0.21-0.1,0.42-0.21,0.63-0.32c-0.11,0-0.16-0.05-0.16-0.16h0.16
		h0.32c0.32-0.32,0.68-0.58,1.11-0.79l0.63-0.32h0.32c0.53-0.53,1.16-0.95,1.9-1.26c0.74-0.32,1.42-0.58,2.05-0.79
		c0-0.42-0.03-0.76-0.08-1.03c-0.05-0.26-0.13-0.55-0.24-0.87c-0.32,0-0.53,0.11-0.63,0.32
		C495.79,305.42,495.63,305.53,495.42,305.53z M495.26,261.76c-0.21,0.21-0.61,0.5-1.18,0.87c-0.58,0.37-1.19,0.79-1.82,1.26
		c-0.63,0.47-1.19,0.87-1.66,1.19c-0.47,0.32-0.66,0.47-0.55,0.47c-0.21,0-0.5,0.16-0.87,0.47c-0.37,0.32-0.55,0.53-0.55,0.63
		c0.74,0,1.37-0.18,1.9-0.55c0.53-0.37,0.92-0.74,1.19-1.11c0.26-0.37,0.45-0.66,0.55-0.87c0.1-0.21,0.16-0.1,0.16,0.32v-0.16
		c0.74-0.53,1.32-0.95,1.74-1.26c0.42-0.32,0.76-0.6,1.03-0.87c0.26-0.26,0.5-0.5,0.71-0.71c0.21-0.21,0.53-0.47,0.95-0.79
		c-0.32,0-0.61,0.13-0.87,0.4C495.71,261.32,495.47,261.55,495.26,261.76z M492.74,282.46c-0.84,0.74-1.58,1.4-2.21,1.98
		c-0.63,0.58-1.21,0.87-1.74,0.87v0.16l-0.16,0.32h0.16l0.95-0.63l0.95-0.63h0.47c1.16-1.16,1.95-1.74,2.37-1.74
		c0.42,0,0.74-0.21,0.95-0.63l0.32,0.16c0.32,0,0.71-0.24,1.19-0.71c0.47-0.47,0.71-0.97,0.71-1.5c0-0.21-0.11-0.42-0.32-0.63
		c-0.53,0.53-1.11,1.03-1.74,1.5C494,281.43,493.37,281.93,492.74,282.46z M496.05,285.15c0,0.21-0.32,0.61-0.95,1.19
		c-0.63,0.58-0.95,0.77-0.95,0.55c-0.21,0.11-0.58,0.26-1.11,0.47c-0.53,0.21-1.08,0.47-1.66,0.79c-0.58,0.32-1.11,0.71-1.58,1.19
		s-0.71,0.92-0.71,1.34c0,0.11,0.05,0.16,0.16,0.16c1.68-1.68,2.84-2.71,3.48-3.08c0.63-0.37,1.05-0.53,1.26-0.47
		c0.21,0.05,0.4,0.11,0.55,0.16c0.16,0.05,0.55-0.24,1.19-0.87c0.21-0.21,0.4-0.4,0.55-0.55c0.16-0.16,0.24-0.34,0.24-0.55
		C496.53,285.25,496.37,285.15,496.05,285.15z M495.26,317.38c-0.11,0.21-0.37,0.45-0.79,0.71c-0.42,0.26-0.53,0.39-0.32,0.39
		c-0.11-0.1-0.21-0.16-0.32-0.16c-0.21,0.21-0.66,0.66-1.34,1.34c-0.69,0.69-1.13,1.03-1.34,1.03c-0.11-0.1-0.21-0.16-0.32-0.16
		c0,0.21-0.11,0.42-0.32,0.63c-0.21,0.21-0.42,0.32-0.63,0.32h-0.16c0,0.21-0.03,0.32-0.08,0.32c-0.05,0-0.08,0.05-0.08,0.16
		c2.32-1.16,3.82-2,4.5-2.53c0.68-0.53,1.13-0.95,1.34-1.26l1.42-0.32c0.1,0.11,0.21,0.16,0.32,0.16c0.1,0,0.16-0.05,0.16-0.16
		c0-0.32-0.26-0.47-0.79-0.47h-0.95H495.26z M494.95,300.79c-0.42,0-0.9,0.34-1.42,1.03c-0.53,0.69-0.9,1.03-1.11,1.03
		c-0.32,0-0.5,0.11-0.55,0.32c-0.05,0.21-0.13,0.37-0.24,0.47h-0.32c0.1,0,0,0.05-0.32,0.16c-0.32,0.11-0.47,0.32-0.47,0.63h0.16
		c0.21-0.53,0.71-0.87,1.5-1.03c0.79-0.16,0.97-0.24,0.55-0.24c0.95-0.95,1.63-1.42,2.05-1.42c0.42,0,0.63-0.37,0.63-1.11
		c0-0.1-0.05-0.16-0.16-0.16L494.95,300.79z M496.37,249.91c-0.32,0-0.77,0.24-1.34,0.71c-0.58,0.47-1.16,1-1.74,1.58
		c-0.58,0.58-1.34,1.29-2.29,2.13c0,0.11,0.05,0.16,0.16,0.16c0.95-1.16,1.82-1.79,2.61-1.9c0.79-0.1,0.92-0.16,0.4-0.16h0.32
		c0.1,0,0.16-0.08,0.16-0.24s0.05-0.24,0.16-0.24c0.42-0.42,0.97-0.84,1.66-1.26c0.68-0.42,1.03-0.79,1.03-1.11v-0.32
		c0.1-0.21,0.24-0.34,0.4-0.4c0.16-0.05,0.24-0.18,0.24-0.4c-0.42,0-0.77,0.24-1.03,0.71C496.82,249.68,496.58,249.91,496.37,249.91
		z M492.42,293.36c-0.11,0.11-0.21,0.16-0.32,0.16l-0.32,0.16c0.1,0.11,0.21,0.16,0.32,0.16c0.21-0.21,0.42-0.37,0.63-0.47
		c0.21-0.1,0.42-0.26,0.63-0.47h-0.32C492.95,292.89,492.74,293.05,492.42,293.36z M492.26,315.17c0.53,0,0.97-0.18,1.34-0.55
		c0.37-0.37,0.66-0.66,0.87-0.87l0.32,0.16c0.1,0,0.29-0.16,0.55-0.47c0.26-0.32,0.66-0.47,1.19-0.47h0.32v-0.32v-0.79
		c0-0.32-0.11-0.53-0.32-0.63c-0.63,0.84-1.34,1.5-2.13,1.97C493.6,313.67,492.89,314.32,492.26,315.17z M495.42,295.89
		c-0.32,0-0.79,0.34-1.42,1.03c-0.63,0.69-0.95,0.92-0.95,0.71c0,0.11,0.05,0.21,0.16,0.32c0-0.21,0.24-0.42,0.71-0.63
		c0.47-0.21,0.87-0.32,1.19-0.32c0.53,0,1,0.32,1.42,0.95v-2.84c-0.21,0-0.4,0.13-0.55,0.4
		C495.82,295.76,495.63,295.89,495.42,295.89z M497.79,337.6h2.05c0-0.63-0.16-1.05-0.47-1.26c-0.21,0.21-0.47,0.42-0.79,0.63
		C498.27,337.18,498,337.39,497.79,337.6z M498.9,318.8c0.1-0.32,0.26-0.55,0.47-0.71c0.21-0.16,0.42-0.4,0.63-0.71h-1.42
		c0.1,0.21,0.13,0.5,0.08,0.87C498.61,318.62,498.69,318.8,498.9,318.8z M555.62,270.77h-16.75c-1.05,0-1.82,0.11-2.29,0.32
		c-0.47,0.21-0.87,0.42-1.19,0.63c-0.32,0.21-0.61,0.42-0.87,0.63c-0.26,0.21-0.66,0.32-1.19,0.32c-1.16,0-1.71-0.32-1.66-0.95
		c0.05-0.63-0.19-0.95-0.71-0.95c-5.69,0-11.01-0.02-15.96-0.08c-4.95-0.05-10.17-0.08-15.64-0.08c-0.21,0-0.32,0.21-0.32,0.63
		c0.1,2.11,0.18,4.24,0.24,6.4c0.05,2.16,0.08,4.35,0.08,6.56c0,2.74-0.11,5.53-0.32,8.37c-0.21,2.84-0.32,5.64-0.32,8.37
		c0,0.74,0.08,1.42,0.24,2.05c0.16,0.63,0.24,1.26,0.24,1.9c0,0.42-0.03,0.82-0.08,1.19c-0.05,0.37-0.08,0.61-0.08,0.71
		c0,0.32,0.05,0.53,0.16,0.63c0.1,0.11,0.16,0.26,0.16,0.47c0,0.95-0.05,2.08-0.16,3.4c-0.11,1.32-0.21,2.5-0.32,3.56
		c0.53,0.21,1.11,0.32,1.74,0.32c0.63,0,1.26,0,1.9,0c7.48,0,14.88-0.05,22.2-0.16c7.32-0.1,14.14-0.16,20.46-0.16
		c0.84,0,1.63,0.03,2.37,0.08c0.74,0.05,1.53,0.08,2.37,0.08c0.84,0,1.6-0.16,2.29-0.47c0.68-0.32,1.55-0.47,2.61-0.47h0.47
		c0-0.1,0.13-0.26,0.4-0.47c0.26-0.21,0.55-0.42,0.87-0.63c0.32-0.21,0.55-0.37,0.71-0.47c0.16-0.1,0.08-0.1-0.24,0
		c0.42-0.53,0.71-1.29,0.87-2.29c0.16-1,0.24-1.6,0.24-1.82c0-1.37-0.21-2.42-0.63-3.16c-0.42-0.74-0.84-1.21-1.26-1.42
		c-0.42-0.21-0.77-0.32-1.03-0.32c-0.26,0-0.24,0,0.08,0c-0.21,0-0.34,0.03-0.4,0.08c-0.05,0.05-0.19,0.08-0.4,0.08
		c-0.32,0-0.82-0.02-1.5-0.08c-0.69-0.05-1.45-0.08-2.29-0.08c-1.16,0.21-2.16,0.21-3,0c-0.84-0.21-1.26-0.1-1.26,0.32
		c-0.21,0-0.32-0.02-0.32-0.08c0-0.05-0.05-0.08-0.16-0.08v0.16c-0.21,0-0.42-0.02-0.63-0.08c-0.21-0.05-0.42-0.08-0.63-0.08h-1.26
		c-1.79-0.1-3.5-0.16-5.14-0.16c-1.63,0-3.35,0-5.13,0c-3.37,0-6.77,0.03-10.19,0.08c-3.42,0.05-6.82,0.08-10.19,0.08
		c-0.32,0.74-0.45,1.61-0.4,2.61c0.05,1-0.29,1.61-1.03,1.82c-0.42-0.21-0.74-0.58-0.95-1.11c-0.21-0.53-0.37-1.03-0.47-1.5
		c-0.11-0.47-0.16-0.87-0.16-1.19s0-0.37,0-0.16c0-0.21,0.02-0.37,0.08-0.47c0.05-0.1,0.08-0.26,0.08-0.47
		c0-1.26-0.03-2.58-0.08-3.95c-0.05-1.37-0.08-2.74-0.08-4.11c0-2.42,0.08-4.84,0.24-7.27c0.16-2.42,0.24-4.63,0.24-6.64
		c0-0.53-0.03-0.97-0.08-1.34c-0.05-0.37-0.08-0.76-0.08-1.19c0-1.16,0.47-1.9,1.42-2.21c0.21,0.53,0.42,0.84,0.63,0.95
		c0.21,0.11,0.32,0.58,0.32,1.42v2.05h42.03c0.32-0.42,0.84-0.79,1.58-1.11c0.74-0.32,1.11-0.74,1.11-1.26
		c0-0.21,0.16-0.55,0.47-1.03c0.32-0.47,0.47-1.34,0.47-2.61c0-1.47-0.26-2.34-0.79-2.61C556.83,272.01,556.25,271.51,555.62,270.77
		z M499.06,268.56h2.05c0-0.63-0.21-0.95-0.63-0.95c-0.11,0.32-0.32,0.5-0.63,0.55C499.53,268.22,499.27,268.35,499.06,268.56z
		 M503.48,317.38c-0.63,0.84-1.37,1.58-2.21,2.21c-0.84,0.63-1.58,1.37-2.21,2.21c0,0.21,0.08,0.32,0.24,0.32
		c0.16,0,0.24,0.11,0.24,0.32v0.16h0.16c0.32,0,0.71-0.16,1.19-0.47c0.47-0.32,0.92-0.63,1.34-0.95c0.42-0.32,0.89-0.79,1.42-1.42
		c0.84-0.84,1.5-1.39,1.98-1.66c0.47-0.26,0.81-0.4,1.03-0.4c0.21,0,0.34,0.03,0.4,0.08c0.05,0.05,0.08-0.08,0.08-0.4H503.48z
		 M501.58,255.28c-0.42,0.21-0.92,0.55-1.5,1.03c-0.58,0.47-0.87,0.82-0.87,1.03v0.32c0,0.11,0.1,0.16,0.32,0.16
		c0.21,0,0.47-0.18,0.79-0.55c0.32-0.37,0.63-0.76,0.95-1.19c0.32-0.42,0.6-0.76,0.87-1.03c0.26-0.26,0.4-0.29,0.4-0.08h-0.16
		c-0.21,0-0.34,0.05-0.4,0.16C501.92,255.23,501.79,255.28,501.58,255.28z M503.01,324.49c0.21-0.21,0.53-0.47,0.95-0.79
		c0.42-0.32,0.63-0.58,0.63-0.79c-0.32,0.32-0.61,0.58-0.87,0.79C503.45,323.91,503.22,324.17,503.01,324.49z M503.16,337.6h3
		c-0.21-0.21-0.26-0.55-0.16-1.03c0.1-0.47-0.11-0.71-0.63-0.71c-0.21,0.53-0.58,0.84-1.11,0.95
		C503.74,336.92,503.37,337.18,503.16,337.6z M510.75,318.96c1.16-0.53,1.79-0.87,1.9-1.03c0.1-0.16,0.42-0.24,0.95-0.24
		c0.74,0,1.21,0.42,1.42,1.26c0,0.32-0.4,0.9-1.18,1.74c-0.79,0.84-1.66,1.66-2.61,2.45c-0.95,0.79-1.77,1.45-2.45,1.98
		c-0.69,0.53-0.87,0.63-0.55,0.32c-0.32,0.11-0.74,0.37-1.26,0.79c-0.53,0.42-1.03,0.84-1.5,1.26c-0.47,0.42-1.08,1-1.82,1.74h0.16
		c0.21-0.42,0.71-0.87,1.5-1.34c0.79-0.47,1.29-0.76,1.5-0.87c1.79-1.79,3.76-3.24,5.92-4.35c2.16-1.11,3.61-2.03,4.35-2.76
		c1.16-0.84,2-1.34,2.53-1.5c0.53-0.16,0.95-0.5,1.26-1.03c-0.53,0-1.08,0.03-1.66,0.08c-0.58,0.05-1.13,0.08-1.66,0.08
		c-1.26,0-2.5-0.02-3.71-0.08c-1.21-0.05-2.35-0.08-3.4-0.08c-0.42,0-0.63,0.11-0.63,0.32c0.1,0,0.16,0.11,0.16,0.32v0.63v0.16
		c-0.11,0-0.29,0.13-0.55,0.4c-0.26,0.26-0.55,0.53-0.87,0.79c-0.32,0.26-0.69,0.61-1.11,1.03l0.16,0.16
		c0.32-0.21,0.68-0.47,1.11-0.79c0.32-0.21,0.66-0.45,1.03-0.71C510.09,319.41,510.43,319.17,510.75,318.96z M504.59,268.56h1.74
		v-0.16v-0.79c0-0.32-0.16-0.47-0.47-0.47c-0.11,0.42-0.32,0.66-0.63,0.71C504.9,267.9,504.69,268.14,504.59,268.56z M505.06,322.91
		c0.21-0.21,0.42-0.37,0.63-0.47c0.21-0.1,0.37-0.26,0.47-0.47C505.53,322.38,505.16,322.7,505.06,322.91z M509.8,337.6
		c0.42,0,0.58-0.1,0.47-0.32C509.96,337.29,509.8,337.39,509.8,337.6z M510.27,268.56c0.42,0,0.66,0,0.71,0
		c0.05,0,0.08-0.21,0.08-0.63h-0.16C510.69,267.92,510.48,268.14,510.27,268.56z M514.38,337.6c0.1,0,0.16,0.03,0.16,0.08
		c0,0.05,0.05,0.08,0.16,0.08c0.53,0,0.79-0.21,0.79-0.63c0-0.21-0.11-0.32-0.32-0.32c-0.11,0.21-0.26,0.34-0.47,0.4
		C514.48,337.26,514.38,337.39,514.38,337.6z M517.54,267.13c-0.21,0.21-0.53,0.45-0.95,0.71c-0.42,0.26-0.63,0.45-0.63,0.55
		c0,0.21,0.34,0.29,1.03,0.24c0.68-0.05,1.19-0.08,1.5-0.08c0.1-0.21,0.13-0.45,0.08-0.71c-0.05-0.26,0.02-0.5,0.24-0.71v-0.16
		c0-0.21,0.08-0.37,0.24-0.47c0.16-0.1,0.24-0.21,0.24-0.32c0-0.1-0.16-0.16-0.47-0.16C518.59,266.34,518.17,266.71,517.54,267.13z
		 M527.02,284.2h-0.16c-0.21,0-0.37-0.02-0.47-0.08c-0.11-0.05-0.26-0.08-0.47-0.08c-1.05,0-2,0.42-2.84,1.26
		c-0.84,0.84-1.58,1.48-2.21,1.9c-0.84,0.84-1.5,1.4-1.98,1.66c-0.47,0.26-0.87,0.47-1.19,0.63c-0.32,0.16-0.55,0.29-0.71,0.4
		c-0.16,0.11-0.34,0.37-0.55,0.79h0.32c1.16,0,2.03-0.13,2.61-0.4c0.58-0.26,1-0.55,1.26-0.87c0.26-0.32,0.4-0.6,0.4-0.87
		c0-0.26,0.05-0.4,0.16-0.4h0.47v-0.32l0.16-0.16h0.47c1.05-1.05,1.87-1.74,2.45-2.05c0.58-0.32,1.03-0.5,1.34-0.55
		c0.32-0.05,0.6-0.08,0.87-0.08c0.26,0,0.55-0.26,0.87-0.79h-0.16l-0.32-0.16L527.02,284.2z M530.02,318.8
		c-0.95,0.21-1.61,0.5-1.98,0.87c-0.37,0.37-0.61,0.69-0.71,0.95c-0.11,0.26-0.16,0.45-0.16,0.55c0,0.11-0.11,0-0.32-0.32
		c-0.21,0.21-0.42,0.47-0.63,0.79c-0.21,0.32-0.42,0.47-0.63,0.47l-0.32-0.16c-0.21,0.21-0.45,0.47-0.71,0.79
		c-0.26,0.32-0.5,0.47-0.71,0.47l-0.16-0.16c-1.05,0.63-1.82,1.13-2.29,1.5c-0.47,0.37-0.79,0.66-0.95,0.87
		c-0.16,0.21-0.29,0.4-0.4,0.55c-0.11,0.16-0.26,0.34-0.47,0.55h-0.47c-0.21,0-0.42,0.13-0.63,0.4c-0.21,0.26-0.42,0.55-0.63,0.87
		c-0.21,0.32-0.4,0.55-0.55,0.71c-0.16,0.16-0.24,0.13-0.24-0.08c0,0.11,0.05,0.16,0.16,0.16c0-0.21,0.26-0.45,0.79-0.71
		c0.53-0.26,0.68-0.4,0.47-0.4c0.32-0.32,0.81-0.71,1.5-1.19c0.68-0.47,1.4-0.95,2.13-1.42c0.74-0.47,1.37-0.92,1.9-1.34
		c0.53-0.42,0.79-0.74,0.79-0.95c0.1,0.11,0.21,0.16,0.32,0.16c0.1,0,0.37-0.16,0.79-0.47c0.42-0.32,0.89-0.66,1.42-1.03
		c0.53-0.37,0.97-0.71,1.34-1.03c0.37-0.32,0.5-0.42,0.4-0.32c1.16-0.84,1.98-1.4,2.45-1.66c0.47-0.26,0.81-0.55,1.03-0.87h-1.9
		v0.32C530.66,318.01,530.44,318.38,530.02,318.8z M518.17,299.52c1.16,0,1.74-0.42,1.74-1.26c-0.11-0.1-0.21-0.16-0.32-0.16
		c-0.21,0.42-0.5,0.63-0.87,0.63C518.36,298.73,518.17,299,518.17,299.52z M521.18,293.05c-0.21,0.53-0.69,0.92-1.42,1.19
		c-0.74,0.26-1.11,0.61-1.11,1.03c0,0.11,0.05,0.16,0.16,0.16c0.53-0.53,1.13-0.95,1.82-1.26c0.68-0.32,1.29-0.74,1.82-1.26h-0.32
		c-0.21,0-0.37,0.03-0.47,0.08C521.54,293.02,521.39,293.05,521.18,293.05z M519.75,248.81c-0.53,0.32-0.79,0.63-0.79,0.95
		c0,0.11,0.05,0.16,0.16,0.16c0.21-0.32,0.47-0.53,0.79-0.63c0.32-0.1,0.58-0.37,0.79-0.79c-0.21,0.11-0.37,0.16-0.47,0.16
		C520.12,248.65,519.96,248.7,519.75,248.81z M523.23,335.23c-0.32,0.21-0.58,0.45-0.79,0.71c-0.21,0.26-0.32,0.34-0.32,0.24v0.16
		c-0.32,0.21-0.61,0.37-0.87,0.47c-0.26,0.11-0.45,0.37-0.55,0.79c0.63,0,1.08,0.03,1.34,0.08c0.26,0.05,0.45,0.03,0.55-0.08
		c0.1-0.1,0.24-0.34,0.4-0.71c0.16-0.37,0.5-0.92,1.03-1.66c0.1-0.21,0.21-0.34,0.32-0.4c0.1-0.05,0.16-0.13,0.16-0.24h-0.16
		c-0.11,0-0.16-0.02-0.16-0.08c0-0.05-0.05-0.08-0.16-0.08c0,0.32-0.08,0.47-0.24,0.47C523.62,334.92,523.44,335.02,523.23,335.23z
		 M534.13,284.2c-1.26,1.16-2.21,1.95-2.84,2.37c-0.63,0.42-1.11,0.74-1.42,0.95c-0.32,0.21-0.63,0.4-0.95,0.55
		c-0.32,0.16-0.84,0.45-1.58,0.87c-0.32,0.21-0.77,0.45-1.34,0.71c-0.58,0.26-0.92,0.61-1.03,1.03c1.79,0,2.95-0.34,3.48-1.03
		c0.53-0.68,0.74-0.97,0.63-0.87c1.9-0.95,3.58-1.98,5.06-3.08c1.47-1.11,2.21-1.6,2.21-1.5H534.13z M524.97,317.85
		c0,0.11,0.1,0.16,0.32,0.16c0.21,0,0.37-0.08,0.47-0.24c0.1-0.16,0.21-0.29,0.32-0.4c-0.21,0-0.45,0-0.71,0
		C525.1,317.38,524.97,317.54,524.97,317.85z M531.13,295.89c-0.42,0.42-0.9,0.74-1.42,0.95c-0.53,0.21-0.79,0.37-0.79,0.47v0.16
		c-0.53,0.32-1.16,0.61-1.9,0.87c-0.74,0.26-1.11,0.66-1.11,1.18c1.26,0,2.61-0.45,4.03-1.34c1.42-0.89,2.13-1.76,2.13-2.61
		c0-0.1-0.11-0.16-0.32-0.16c0,0.21-0.08,0.32-0.24,0.32S531.23,295.79,531.13,295.89z M539.03,252.44c-0.53,0-1.13,0.37-1.82,1.11
		c-0.69,0.74-0.98,1.05-0.87,0.95h-0.32c-0.11,0-0.66,0.34-1.66,1.03c-1,0.69-2.05,1.48-3.16,2.37c-1.11,0.9-2.13,1.77-3.08,2.61
		c-0.95,0.84-1.42,1.42-1.42,1.74c0,0.11,0.05,0.16,0.16,0.16c0.95-1.16,2-2.08,3.16-2.77c1.16-0.68,1.63-1.03,1.42-1.03
		c1.68-1.68,2.98-2.9,3.87-3.63c0.89-0.74,1.63-1.26,2.21-1.58c0.58-0.32,1.08-0.58,1.5-0.79c0.42-0.21,1.05-0.63,1.9-1.26
		c-0.42,0-0.77,0.13-1.03,0.4C539.63,251.99,539.35,252.23,539.03,252.44z M537.29,248.33c-0.32,0.95-0.77,1.63-1.34,2.05
		c-0.58,0.42-1.13,0.74-1.66,0.95c-0.53,0.21-0.9,0.32-1.11,0.32c-0.21,0-0.16,0,0.16,0c-0.32,0.32-0.82,0.71-1.5,1.19
		c-0.69,0.47-1.37,0.92-2.05,1.34c-0.69,0.42-1.26,0.82-1.74,1.19c-0.47,0.37-0.71,0.66-0.71,0.87h0.16
		c0.21-0.21,0.37-0.37,0.47-0.47c0.1-0.1,0.26-0.26,0.47-0.47c0.1,0.11,0.21,0.16,0.32,0.16c0.21,0,0.29-0.08,0.24-0.24
		c-0.05-0.16,0.02-0.24,0.24-0.24h0.32c0.84-0.84,1.58-1.45,2.21-1.82c0.63-0.37,1.11-0.71,1.42-1.03c0.1,0,0.16,0.03,0.16,0.08
		c0,0.05,0.05,0.08,0.16,0.08l0.16-0.16c0-0.1,0.02-0.16,0.08-0.16c0.05,0,0.08-0.1,0.08-0.32l0.32,0.16c0.1,0,0.18-0.08,0.24-0.24
		c0.05-0.16,0.13-0.24,0.24-0.24h0.47c0.53-0.53,1.18-1.03,1.97-1.5s1.45-0.97,1.98-1.5H537.29z M528.6,336.81
		c-0.63,0-1.05,0.26-1.26,0.79h3.32c0-0.32-0.11-0.55-0.32-0.71c-0.21-0.16-0.32-0.4-0.32-0.71v-0.32
		C529.39,336.08,528.92,336.39,528.6,336.81z M528.92,293.84c0.42-0.42,0.79-0.68,1.11-0.79h-0.16
		C529.44,293.05,529.13,293.31,528.92,293.84z M532.08,266.34c-0.21,0.21-0.4,0.42-0.55,0.63c-0.16,0.21-0.34,0.32-0.55,0.32
		c-0.11-0.1-0.21-0.16-0.32-0.16c-0.11,0.11-0.34,0.37-0.71,0.79c-0.37,0.42-0.55,0.58-0.55,0.47c0,0.21,0.37,0.29,1.11,0.24
		c0.74-0.05,1.26-0.08,1.58-0.08c0.53-0.53,0.97-1.03,1.34-1.5c0.37-0.47,0.66-0.92,0.87-1.34c0.32-0.42,0.53-0.84,0.63-1.26
		c0-0.1-0.05-0.16-0.16-0.16c-0.42,0.42-0.84,0.77-1.26,1.03C533.08,265.58,532.6,265.92,532.08,266.34z M540.45,319.27
		c-1.79,0.53-2.98,1.21-3.55,2.05c-0.58,0.84-0.82,1.16-0.71,0.95h-0.47c-0.53,0-1.03,0.32-1.5,0.95s-0.61,0.84-0.4,0.63h-0.32
		c-0.32,0-0.74,0.32-1.26,0.95c-0.53,0.63-0.79,0.84-0.79,0.63c0,0.11,0.05,0.16,0.16,0.16c2-1.26,3.71-2.47,5.13-3.63
		c1.42-1.16,2.55-1.74,3.4-1.74h0.32c0.95-0.95,1.66-1.53,2.13-1.74c0.47-0.21,0.84-0.32,1.11-0.32c0.26,0,0.5,0,0.71,0
		c0.21,0,0.47-0.26,0.79-0.79c-1.16,0-2.16-0.05-3-0.16C541.35,317.12,540.77,317.8,540.45,319.27z M542.51,284.2
		c-0.21,0.63-0.63,1.19-1.26,1.66c-0.63,0.47-1.34,0.92-2.13,1.34c-0.79,0.42-1.56,0.77-2.29,1.03c-0.74,0.26-1.26,0.5-1.58,0.71
		c-0.53,0.53-1,0.9-1.42,1.11c-0.42,0.21-0.63,0.42-0.63,0.63c1.16,0,2.13-0.24,2.92-0.71c0.79-0.47,1.45-0.95,1.98-1.42
		c0.53-0.47,0.89-0.87,1.11-1.19c0.21-0.32,0.32-0.32,0.32,0c1.58-0.84,2.71-1.39,3.4-1.66c0.68-0.26,1.16-0.45,1.42-0.55
		c0.26-0.1,0.4-0.18,0.4-0.24c0-0.05,0.1-0.29,0.32-0.71H542.51z M533.18,337.6c0.32,0,0.92,0.03,1.82,0.08
		c0.89,0.05,1.34-0.02,1.34-0.24v-0.63c0-0.32,0.1-0.47,0.32-0.47c-0.11-0.1-0.16-0.21-0.16-0.32c0-0.1,0.05-0.18,0.16-0.24
		c0.1-0.05,0.16-0.13,0.16-0.24c0-0.1-0.16-0.16-0.47-0.16c-0.42,0.53-0.95,0.9-1.58,1.11C534.13,336.71,533.6,337.08,533.18,337.6z
		 M535.71,299.21h2.05h0.95c0.21,0,0.32-0.05,0.32-0.16c-0.11,0-0.16-0.1-0.16-0.32v-0.95c0-0.21-0.11-0.32-0.32-0.32
		c-0.11,0-0.55,0.24-1.34,0.71S535.92,299,535.71,299.21z M559.73,248.49c-0.63,1.05-1.19,1.74-1.66,2.05
		c-0.47,0.32-0.87,0.53-1.19,0.63c-0.32,0.11-0.61,0.13-0.87,0.08c-0.26-0.05-0.5,0.03-0.71,0.24c-1.58,0.84-2.61,1.4-3.08,1.66
		c-0.47,0.26-0.84,0.53-1.11,0.79c-0.26,0.26-0.58,0.55-0.95,0.87c-0.37,0.32-1.19,0.95-2.45,1.9c-1.16,0.74-2.16,1.56-3,2.45
		c-0.84,0.9-1.74,1.77-2.69,2.61h-0.32c-0.11,0-0.58,0.4-1.42,1.19c-0.84,0.79-1.26,1.34-1.26,1.66h-0.16
		c-0.21,0.42-0.55,0.82-1.03,1.19c-0.47,0.37-0.71,0.71-0.71,1.03c0,0.11,0.05,0.16,0.16,0.16c0.32-0.53,1.05-1.26,2.21-2.21
		c1.16-0.95,1.79-1.42,1.9-1.42h0.47c1.16-1.16,2.34-2.24,3.55-3.24c1.21-1,1.92-1.5,2.13-1.5h0.47c0.74-1.05,1.53-1.82,2.37-2.29
		c0.84-0.47,1.21-0.71,1.11-0.71h0.32c0.32-0.21,0.55-0.45,0.71-0.71c0.16-0.26,0.34-0.4,0.55-0.4h0.32
		c0.21-0.21,0.42-0.45,0.63-0.71c0.21-0.26,0.42-0.4,0.63-0.4h0.32c0.84-0.84,1.5-1.4,1.98-1.66c0.47-0.26,0.71-0.34,0.71-0.24
		v-0.16c0.32-0.21,0.5-0.34,0.55-0.4c0.05-0.05,0.18-0.18,0.4-0.4l0.32,0.16c0.53,0,0.87-0.24,1.03-0.71
		c0.16-0.47,0.24-0.5,0.24-0.08v-0.16c0.42-0.21,0.81-0.42,1.19-0.63c0.37-0.21,0.66-0.47,0.87-0.79h-1.42
		C560.2,248.33,559.83,248.39,559.73,248.49z M541.56,337.6c0.63,0,1.26,0.03,1.9,0.08c0.63,0.05,1.26,0.08,1.9,0.08
		c0.32,0,0.58-0.1,0.79-0.32c-0.63-0.42-0.95-0.89-0.95-1.42c0-0.21,0.08-0.4,0.24-0.55c0.16-0.16,0.24-0.34,0.24-0.55h-0.16
		c-0.11,0-0.16-0.02-0.16-0.08c0-0.05-0.05-0.08-0.16-0.08c-0.53,0.63-1.13,1.11-1.82,1.42C542.69,336.5,542.08,336.97,541.56,337.6
		z M552.3,284.2c-2.11,1.79-3.61,2.98-4.5,3.55c-0.9,0.58-1.53,0.92-1.9,1.03c-0.37,0.11-0.69,0.21-0.95,0.32
		c-0.26,0.11-0.87,0.63-1.82,1.58c0.53,0,1-0.21,1.42-0.63c0.42-0.42,0.63-0.53,0.63-0.32v-0.32c2-0.63,3.37-1.19,4.11-1.66
		c0.74-0.47,1.16-0.81,1.26-1.03c0.1-0.21,0.13-0.37,0.08-0.47c-0.05-0.1,0.18-0.16,0.71-0.16c0.63,0,1.32-0.34,2.05-1.03
		c0.74-0.68,1.11-0.97,1.11-0.87H552.3z M548.67,295.89c-0.21,0-0.47,0.13-0.79,0.4c-0.32,0.26-0.58,0.5-0.79,0.71h-0.47
		c-0.11,0-0.16,0.08-0.16,0.24c0,0.16-0.11,0.24-0.32,0.24c-0.32,0-0.84,0.24-1.58,0.71c-0.74,0.47-1.21,0.82-1.42,1.03
		c0.95,0,1.87,0.03,2.77,0.08c0.89,0.05,1.6,0.08,2.13,0.08c0.21,0,0.42-0.1,0.63-0.32c-0.21-0.1-0.32-0.42-0.32-0.95
		c0-0.53,0-0.74,0-0.63l0.95-1.26c0.21-0.32,0.47-0.68,0.79-1.11v-0.16c-0.21,0.21-0.45,0.4-0.71,0.55
		C549.11,295.65,548.88,295.79,548.67,295.89z M551.35,248.33c-0.42,0.32-1.08,0.79-1.98,1.42c-0.9,0.63-1.79,1.26-2.69,1.9
		c-0.9,0.63-1.69,1.24-2.37,1.82c-0.69,0.58-1.03,0.98-1.03,1.19h0.16c0.42-0.32,0.97-0.71,1.66-1.19c0.68-0.47,1.37-0.89,2.05-1.26
		c0.68-0.37,1.26-0.68,1.74-0.95c0.47-0.26,0.66-0.4,0.55-0.4h0.32c0.84-0.84,1.58-1.32,2.21-1.42c0.63-0.1,1.21-0.47,1.74-1.11
		H551.35z M547.56,320.85c0-0.42,0.29-0.81,0.87-1.19c0.58-0.37,1.24-0.68,1.98-0.95c0.74-0.26,1.4-0.5,1.98-0.71
		c0.58-0.21,0.87-0.37,0.87-0.47v-0.16c-0.21,0-0.34,0.05-0.4,0.16c-0.05,0.11-0.24,0.16-0.55,0.16c-0.42,0-0.77-0.05-1.03-0.16
		c-0.26-0.1-0.66-0.16-1.19-0.16c-0.21,0-0.45,0.47-0.71,1.42c-0.26,0.95-0.71,1.42-1.34,1.42c-0.32,0-0.69,0.19-1.11,0.55
		c-0.42,0.37-0.63,0.5-0.63,0.4c0,0.11,0.1,0.16,0.32,0.16c0.1-0.21,0.24-0.32,0.4-0.32C547.17,321.01,547.35,320.96,547.56,320.85z
		 M556.09,323.38c-0.21,0-0.69,0.24-1.42,0.71c-0.74,0.47-1.21,0.82-1.42,1.03c-1.58,1.58-2.87,2.5-3.87,2.77
		c-1,0.26-1.5,0.71-1.5,1.34c0.32,0,0.68-0.13,1.11-0.4c0.42-0.26,0.84-0.55,1.26-0.87c0.42-0.32,0.79-0.6,1.11-0.87
		c0.32-0.26,0.42-0.4,0.32-0.4c0.42-0.42,0.81-0.71,1.19-0.87c0.37-0.16,0.71-0.4,1.03-0.71c0.1,0,0.16,0.03,0.16,0.08
		c0,0.05,0.05,0.08,0.16,0.08c0.1,0,0.18-0.1,0.24-0.32c0.05-0.21,0.24-0.32,0.55-0.32c0.74,0,1.34-0.16,1.82-0.47
		c0.47-0.32,0.84-0.68,1.11-1.11c0.26-0.42,0.45-0.74,0.55-0.95c0.1-0.21,0.16-0.26,0.16-0.16c-0.53,0-0.98,0.21-1.34,0.63
		C556.91,323.01,556.51,323.28,556.09,323.38z M548.67,337.6c0.42,0.21,0.74,0.32,0.95,0.32v-0.63
		C549.09,337.29,548.77,337.39,548.67,337.6z M551.67,268.4h1.26c0-0.1-0.03-0.16-0.08-0.16c-0.05,0-0.08-0.05-0.08-0.16
		c0-0.21,0.05-0.37,0.16-0.47c0.1-0.1,0.16-0.21,0.16-0.32c0-0.1-0.05-0.16-0.16-0.16c-0.21,0.32-0.45,0.53-0.71,0.63
		C551.96,267.87,551.77,268.08,551.67,268.4z M557.36,255.6c-0.32,0-0.71,0.16-1.19,0.47s-0.98,0.69-1.5,1.11
		c-0.53,0.42-1.11,0.95-1.74,1.58c0,0.11-0.11,0.16-0.32,0.16c-0.11,0-0.16,0.05-0.16,0.16c0,0.11,0.1,0.16,0.32,0.16
		c1.37-1.68,2.42-2.74,3.16-3.16c0.74-0.42,1.29-0.6,1.66-0.55c0.37,0.05,0.58,0.16,0.63,0.32c0.05,0.16,0.08-0.02,0.08-0.55
		c0-0.1-0.05-0.21-0.16-0.32c-0.11,0.11-0.24,0.24-0.4,0.4C557.59,255.52,557.46,255.6,557.36,255.6z M554.51,337.92h2.05
		c0-0.1-0.03-0.16-0.08-0.16c-0.05,0-0.08-0.05-0.08-0.16c0-0.21,0.05-0.42,0.16-0.63c0.1-0.21,0.16-0.37,0.16-0.47
		c0-0.1-0.11-0.16-0.32-0.16c-0.21,0.42-0.53,0.69-0.95,0.79C555.04,337.23,554.72,337.5,554.51,337.92z M557.52,318.8
		c0.21-0.21,0.42-0.37,0.63-0.47c0.21-0.1,0.32-0.32,0.32-0.63v-0.32c-0.21,0.11-0.5,0.13-0.87,0.08c-0.37-0.05-0.55,0.03-0.55,0.24
		c0.21,0,0.32,0.11,0.32,0.32c0,0.11-0.03,0.19-0.08,0.24c-0.05,0.05-0.08,0.19-0.08,0.4C557.2,318.75,557.3,318.8,557.52,318.8z
		 M565.89,249.91c-0.84,1.05-1.74,1.71-2.69,1.98c-0.95,0.26-1.32,0.45-1.11,0.55c-0.53,0-1.11,0.34-1.74,1.03
		c-0.63,0.69-0.95,0.98-0.95,0.87c0.1,0,0.16,0.05,0.16,0.16c0.84,0,1.74-0.37,2.69-1.11c0.42-0.42,0.89-0.84,1.42-1.26
		c1.37-0.53,2.29-1.05,2.77-1.58c0.47-0.53,0.81-0.79,1.03-0.79c0.21-0.21,0.45-0.34,0.71-0.4c0.26-0.05,0.5-0.18,0.71-0.39
		c-0.42-0.21-0.82-0.37-1.19-0.47c-0.37-0.1-0.82-0.16-1.34-0.16c-0.42,0-0.61,0.19-0.55,0.55
		C565.86,249.26,565.89,249.6,565.89,249.91z M561.62,318.8v0.47c0,0.63-0.21,1-0.63,1.11c-0.42,0.11-0.69,0.42-0.79,0.95
		c0.42,0,0.84-0.21,1.26-0.63c0.21-0.21,0.42-0.37,0.63-0.47c0.21,0,0.6-0.16,1.19-0.47c0.58-0.32,0.81-0.47,0.71-0.47h0.32v-0.32
		l0.32,0.16c0.21,0,0.24-0.08,0.08-0.24c-0.16-0.16,0.02-0.24,0.55-0.24h0.47c0.21-0.21,0.5-0.42,0.87-0.63
		c0.37-0.21,0.6-0.42,0.71-0.63h-6.16c-0.42,0-0.74,0.11-0.95,0.32C561.15,317.91,561.62,318.27,561.62,318.8z M561.62,314.53
		c-0.21,0.11-0.42,0.13-0.63,0.08c-0.21-0.05-0.32,0.03-0.32,0.24c0.63,0,1.08,0,1.34,0c0.26,0,0.5-0.37,0.71-1.11
		c-0.32,0-0.55,0.11-0.71,0.32C561.86,314.27,561.73,314.43,561.62,314.53z M563.36,336.34c-0.32,0.21-0.66,0.45-1.03,0.71
		c-0.37,0.26-0.71,0.55-1.03,0.87c0.53,0,1.16-0.13,1.9-0.4c0.74-0.26,1.79-0.5,3.16-0.71c0-0.32-0.11-0.58-0.32-0.79
		c-0.21-0.21-0.32-0.47-0.32-0.79v-0.32c0-0.1-0.05-0.16-0.16-0.16c-0.21,0-0.55,0.21-1.03,0.63
		C564.07,335.81,563.68,336.13,563.36,336.34z M574.58,320.22c-1.58,0-2.61,0.4-3.08,1.19c-0.47,0.79-0.61,1.08-0.4,0.87
		c-0.84,0.53-1.77,1.11-2.77,1.74c-1,0.63-1.5,1-1.5,1.11c2.74-1.58,4.55-2.61,5.45-3.08c0.89-0.47,1.39-0.74,1.5-0.79
		c0.1-0.05,0.08-0.05-0.08,0c-0.16,0.05,0.18-0.24,1.03-0.87c0.63-0.21,1.05-0.42,1.26-0.63h-0.32
		C575.26,319.75,574.9,319.91,574.58,320.22z M570.63,251.49c-0.21,0.11-0.61,0.4-1.19,0.87c-0.58,0.47-0.87,0.77-0.87,0.87
		c0,0.11,0.05,0.16,0.16,0.16c0-0.21,0.47-0.5,1.42-0.87c0.95-0.37,1.68-0.76,2.21-1.19c-0.42-0.1-0.71-0.29-0.87-0.55
		c-0.16-0.26-0.45-0.4-0.87-0.4V251.49z M568.73,314.85c0.1,0.11,0.32,0.16,0.63,0.16c0.74,0,1.11-0.42,1.11-1.26
		C569.73,313.85,569.15,314.22,568.73,314.85z M570.63,296.21c0.1-0.21,0.26-0.32,0.47-0.32c0.21,0,0.32-0.1,0.32-0.32h-0.16
		c-0.53,0-0.79,0.16-0.79,0.47C570.47,296.15,570.52,296.21,570.63,296.21z M571.58,317.85l0.16,0.16c0.42,0,0.74-0.21,0.95-0.63
		h-0.16h-0.63C571.68,317.38,571.58,317.54,571.58,317.85z M574.11,254.49c-0.21,0.21-0.55,0.42-1.03,0.63
		c-0.47,0.21-0.82,0.42-1.03,0.63c0.21,0,0.74-0.16,1.58-0.47c0.84-0.32,1.37-0.58,1.58-0.79l-0.63-0.32
		C574.47,254.18,574.32,254.28,574.11,254.49z M577.11,252.6c0.42,0.63,0.74,1,0.95,1.11c0,0.11-0.03,0.19-0.08,0.24
		c-0.05,0.05-0.08,0.13-0.08,0.24c0,0.11,0.08,0.19,0.24,0.24c0.16,0.05,0.24,0.13,0.24,0.24v0.32c0.74,0.42,1.19,0.82,1.34,1.19
		c0.16,0.37,0.24,0.71,0.24,1.03s0,0.58,0,0.79c0,0.21,0.16,0.32,0.47,0.32c0-0.84,0.02-1.76,0.08-2.77c0.05-1,0.08-1.98,0.08-2.92
		c0-1.37-0.16-2.37-0.47-3s-0.74-1.03-1.26-1.19c-0.53-0.16-1.16-0.21-1.9-0.16c-0.74,0.05-1.53,0.08-2.37,0.08
		c-0.21,0-0.58-0.02-1.11-0.08c-0.53-0.05-0.79,0.03-0.79,0.24c0.84,0.63,1.63,1.26,2.37,1.9
		C575.79,251.02,576.48,251.76,577.11,252.6z M574.26,302.21c0,0.11-0.08,0.19-0.24,0.24c-0.16,0.05-0.24,0.13-0.24,0.24
		c0,0.11,0.05,0.16,0.16,0.16c0.21-0.21,0.66-0.47,1.34-0.79c0.68-0.32,1.29-0.47,1.82-0.47h0.47c-0.21-0.32-0.37-0.63-0.47-0.95
		c-0.11-0.32-0.37-0.47-0.79-0.47c-0.11,0.53-0.4,0.95-0.87,1.26C574.97,301.74,574.58,302,574.26,302.21z M578.06,261.45
		c-0.53,0.53-0.92,0.77-1.18,0.71c-0.26-0.05-0.5,0.13-0.71,0.55h-0.32c-0.21,0-0.53,0.19-0.95,0.55c-0.42,0.37-0.53,0.45-0.32,0.24
		h0.16c0.53-0.21,1.05-0.42,1.58-0.63c0.53-0.21,1.05-0.32,1.58-0.32c0.53,0,0.95,0.11,1.26,0.32l-0.47-1.9
		c-0.21,0-0.34,0.05-0.4,0.16C578.24,261.24,578.16,261.34,578.06,261.45z M575.53,306.48c-0.21,0.21-0.42,0.37-0.63,0.47
		c-0.21,0.11-0.32,0.21-0.32,0.32c0,0.11,0.05,0.16,0.16,0.16c0.42-0.42,1.03-0.79,1.82-1.11c0.79-0.32,1.45-0.47,1.98-0.47
		c0.32,0,0.55,0.05,0.71,0.16c0.16,0.11,0.34,0.21,0.55,0.32c0-0.32-0.19-0.76-0.55-1.34c-0.37-0.58-0.66-0.92-0.87-1.03
		c-0.53,0.53-1.03,1-1.5,1.42C576.4,305.79,575.95,306.16,575.53,306.48z M576,258.13c-0.21,0.11-0.42,0.19-0.63,0.24
		c-0.21,0.05-0.32,0.13-0.32,0.24c0,0.11,0.05,0.16,0.16,0.16c0.21-0.21,0.55-0.34,1.03-0.4c0.47-0.05,0.81-0.24,1.03-0.55
		c-0.21,0-0.32-0.1-0.32-0.32c0-0.21-0.11-0.32-0.32-0.32C576.42,257.39,576.21,257.71,576,258.13z M576,328.28
		c-0.21,0.21-0.42,0.34-0.63,0.4c-0.21,0.05-0.32,0.19-0.32,0.4c0,0.11,0.05,0.16,0.16,0.16c0-0.1,0.1-0.16,0.32-0.16h0.79
		c0.1,0,0.32-0.18,0.63-0.55c0.32-0.37,0.47-0.66,0.47-0.87c-0.11-0.1-0.21-0.16-0.32-0.16c-0.11,0.21-0.26,0.34-0.47,0.4
		C576.42,327.94,576.21,328.07,576,328.28z M577.58,323.07l-0.16,0.16l-0.32-0.16c-0.21,0.21-0.29,0.37-0.24,0.47
		c0.05,0.11-0.03,0.16-0.24,0.16c-0.11-0.1-0.21-0.16-0.32-0.16c-0.11,0.11-0.16,0.21-0.16,0.32c0,0.11-0.11,0.16-0.32,0.16h-0.16
		c0,0.11-0.03,0.16-0.08,0.16c-0.05,0-0.08,0.05-0.08,0.16v0.16c0.84-0.63,1.63-0.95,2.37-0.95h0.47c0.21,0,0.32-0.26,0.32-0.79
		c0-0.32-0.11-0.47-0.32-0.47c-0.21,0.21-0.37,0.37-0.47,0.47C577.79,322.86,577.69,322.96,577.58,323.07z M578.37,266.03
		c0.1,0,0.05,0.11-0.16,0.32c-1.16,0-1.87,0.37-2.13,1.11c-0.26,0.74-0.4,0.95-0.4,0.63c0.84-0.42,1.68-0.63,2.53-0.63
		c0.53,0,1.05,0.16,1.58,0.47c0-0.42,0.02-0.76,0.08-1.03c0.05-0.26,0.08-0.5,0.08-0.71c0-0.21-0.05-0.45-0.16-0.71
		c-0.11-0.26-0.26-0.4-0.47-0.4C579.11,265.71,578.79,266.03,578.37,266.03z M576.79,281.51l0.95,0.47c0.1-0.32,0.26-0.63,0.47-0.95
		c0.21-0.32,0.32-0.58,0.32-0.79l-0.16-0.16c-0.21,0.32-0.47,0.55-0.79,0.71C577.27,280.96,577,281.2,576.79,281.51z M577.58,272.03
		h0.63c0.53,0,0.89,0.05,1.11,0.16c-0.11-0.1-0.16-0.21-0.16-0.32c0-0.21,0.05-0.37,0.16-0.47c0.1-0.1,0.16-0.26,0.16-0.47
		c0-0.1-0.05-0.21-0.16-0.32c-0.21,0.21-0.5,0.42-0.87,0.63C578.08,271.46,577.79,271.72,577.58,272.03z M577.58,276.3h0.32
		c0.21,0,0.37,0.03,0.47,0.08c0.1,0.05,0.26,0.08,0.47,0.08h0.32c-0.11-0.21-0.13-0.47-0.08-0.79c0.05-0.32-0.03-0.47-0.24-0.47
		c-0.11,0.21-0.29,0.4-0.55,0.55C578.03,275.9,577.79,276.09,577.58,276.3z M577.74,310.58c0.84-0.21,1.53-0.42,2.05-0.63v-0.16V309
		c0-0.1-0.05-0.16-0.16-0.16c-0.21,0.42-0.53,0.71-0.95,0.87C578.27,309.87,577.95,310.17,577.74,310.58z"/>
</g>
</svg>
